<?xml version="1.0" encoding="UTF-8" standalone="no"?>
<!DOCTYPE svg PUBLIC "-//W3C//DTD SVG 1.1//EN"
 "http://www.w3.org/Graphics/SVG/1.1/DTD/svg11.dtd">
<!-- Generated by graphviz version 2.47.3 (20210619.1520)
 -->
<!-- Title: dependencies Pages: 1 -->
<svg width="1066pt" height="247pt"
 viewBox="0.00 0.00 1066.00 246.80" xmlns="http://www.w3.org/2000/svg" xmlns:xlink="http://www.w3.org/1999/xlink">
<g id="graph0" class="graph" transform="scale(1 1) rotate(0) translate(4 242.8)">
<title>dependencies</title>
<polygon fill="white" stroke="transparent" points="-4,4 -4,-242.8 1062,-242.8 1062,4 -4,4"/>
<text text-anchor="middle" x="529" y="-8.2" font-family="sans-serif" font-size="14.00">dependencies</text>
<g id="clust1" class="cluster">
<title>cluster_AppModule</title>
<polygon fill="none" stroke="black" stroke-dasharray="1,5" points="8,-32.8 8,-230.8 1050,-230.8 1050,-32.8 8,-32.8"/>
</g>
<g id="clust2" class="cluster">
<title>cluster_AppModule_declarations</title>
<polygon fill="none" stroke="black" points="156,-40.8 156,-92.8 1042,-92.8 1042,-40.8 156,-40.8"/>
</g>
<g id="clust11" class="cluster">
<title>cluster_AppModule_bootstrap</title>
<polygon fill="none" stroke="black" points="448,-170.8 448,-222.8 572,-222.8 572,-170.8 448,-170.8"/>
</g>
<g id="clust12" class="cluster">
<title>cluster_AppModule_providers</title>
<polygon fill="none" stroke="black" points="16,-40.8 16,-92.8 148,-92.8 148,-40.8 16,-40.8"/>
</g>
<!-- AppComponent -->
<g id="node1" class="node">
<title>AppComponent</title>
<polygon fill="#ffffb3" stroke="black" points="1033.94,-84.8 928.06,-84.8 928.06,-48.8 1033.94,-48.8 1033.94,-84.8"/>
<text text-anchor="middle" x="981" y="-62.6" font-family="Times,serif" font-size="14.00">AppComponent</text>
</g>
<!-- AppModule -->
<g id="node7" class="node">
<title>AppModule</title>
<polygon fill="#8dd3c7" stroke="black" points="551.66,-149.8 548.66,-153.8 527.66,-153.8 524.66,-149.8 468.34,-149.8 468.34,-113.8 551.66,-113.8 551.66,-149.8"/>
<text text-anchor="middle" x="510" y="-127.6" font-family="Times,serif" font-size="14.00">AppModule</text>
</g>
<!-- AppComponent&#45;&gt;AppModule -->
<g id="edge1" class="edge">
<title>AppComponent&#45;&gt;AppModule</title>
<path fill="none" stroke="black" d="M981,-85.09C981,-107.01 981,-140.8 981,-140.8 981,-140.8 561.8,-140.8 561.8,-140.8"/>
<polygon fill="black" stroke="black" points="561.8,-137.3 551.8,-140.8 561.8,-144.3 561.8,-137.3"/>
</g>
<!-- ChartsComponent -->
<g id="node2" class="node">
<title>ChartsComponent</title>
<polygon fill="#ffffb3" stroke="black" points="909.88,-84.8 792.12,-84.8 792.12,-48.8 909.88,-48.8 909.88,-84.8"/>
<text text-anchor="middle" x="851" y="-62.6" font-family="Times,serif" font-size="14.00">ChartsComponent</text>
</g>
<!-- ChartsComponent&#45;&gt;AppModule -->
<g id="edge2" class="edge">
<title>ChartsComponent&#45;&gt;AppModule</title>
<path fill="none" stroke="black" d="M851,-84.91C851,-104.14 851,-131.8 851,-131.8 851,-131.8 561.81,-131.8 561.81,-131.8"/>
<polygon fill="black" stroke="black" points="561.81,-128.3 551.81,-131.8 561.81,-135.3 561.81,-128.3"/>
</g>
<!-- DoctorCovidStatusComponent -->
<g id="node3" class="node">
<title>DoctorCovidStatusComponent</title>
<polygon fill="#ffffb3" stroke="black" points="774.16,-84.8 585.84,-84.8 585.84,-48.8 774.16,-48.8 774.16,-84.8"/>
<text text-anchor="middle" x="680" y="-62.6" font-family="Times,serif" font-size="14.00">DoctorCovidStatusComponent</text>
</g>
<!-- DoctorCovidStatusComponent&#45;&gt;AppModule -->
<g id="edge3" class="edge">
<title>DoctorCovidStatusComponent&#45;&gt;AppModule</title>
<path fill="none" stroke="black" d="M680,-84.83C680,-101.2 680,-122.8 680,-122.8 680,-122.8 562.02,-122.8 562.02,-122.8"/>
<polygon fill="black" stroke="black" points="562.02,-119.3 552.02,-122.8 562.02,-126.3 562.02,-119.3"/>
</g>
<!-- LoginComponent -->
<g id="node4" class="node">
<title>LoginComponent</title>
<polygon fill="#ffffb3" stroke="black" points="567.28,-84.8 452.72,-84.8 452.72,-48.8 567.28,-48.8 567.28,-84.8"/>
<text text-anchor="middle" x="510" y="-62.6" font-family="Times,serif" font-size="14.00">LoginComponent</text>
</g>
<!-- LoginComponent&#45;&gt;AppModule -->
<g id="edge4" class="edge">
<title>LoginComponent&#45;&gt;AppModule</title>
<path fill="none" stroke="black" d="M510,-84.91C510,-84.91 510,-103.79 510,-103.79"/>
<polygon fill="black" stroke="black" points="506.5,-103.79 510,-113.79 513.5,-103.79 506.5,-103.79"/>
</g>
<!-- ProfilesComponent -->
<g id="node5" class="node">
<title>ProfilesComponent</title>
<polygon fill="#ffffb3" stroke="black" points="434.38,-84.8 309.62,-84.8 309.62,-48.8 434.38,-48.8 434.38,-84.8"/>
<text text-anchor="middle" x="372" y="-62.6" font-family="Times,serif" font-size="14.00">ProfilesComponent</text>
</g>
<!-- ProfilesComponent&#45;&gt;AppModule -->
<g id="edge5" class="edge">
<title>ProfilesComponent&#45;&gt;AppModule</title>
<path fill="none" stroke="black" d="M372,-84.83C372,-101.2 372,-122.8 372,-122.8 372,-122.8 458.22,-122.8 458.22,-122.8"/>
<polygon fill="black" stroke="black" points="458.22,-126.3 468.22,-122.8 458.22,-119.3 458.22,-126.3"/>
</g>
<!-- RegisterComponent -->
<g id="node6" class="node">
<title>RegisterComponent</title>
<polygon fill="#ffffb3" stroke="black" points="291.98,-84.8 164.02,-84.8 164.02,-48.8 291.98,-48.8 291.98,-84.8"/>
<text text-anchor="middle" x="228" y="-62.6" font-family="Times,serif" font-size="14.00">RegisterComponent</text>
</g>
<!-- RegisterComponent&#45;&gt;AppModule -->
<g id="edge6" class="edge">
<title>RegisterComponent&#45;&gt;AppModule</title>
<path fill="none" stroke="black" d="M228,-84.91C228,-104.14 228,-131.8 228,-131.8 228,-131.8 458.09,-131.8 458.09,-131.8"/>
<polygon fill="black" stroke="black" points="458.09,-135.3 468.09,-131.8 458.09,-128.3 458.09,-135.3"/>
</g>
<!-- AppComponent  -->
<g id="node8" class="node">
<title>AppComponent </title>
<polygon fill="#80b1d3" stroke="black" points="564.44,-214.8 455.56,-214.8 455.56,-178.8 564.44,-178.8 564.44,-214.8"/>
<text text-anchor="middle" x="510" y="-192.6" font-family="Times,serif" font-size="14.00">AppComponent </text>
</g>
<!-- AppModule&#45;&gt;AppComponent  -->
<g id="edge7" class="edge">
<title>AppModule&#45;&gt;AppComponent </title>
<path fill="none" stroke="black" stroke-dasharray="1,5" d="M510,-149.91C510,-149.91 510,-168.79 510,-168.79"/>
<polygon fill="black" stroke="black" points="506.5,-168.79 510,-178.79 513.5,-168.79 506.5,-168.79"/>
</g>
<!-- UserService -->
<g id="node9" class="node">
<title>UserService</title>
<ellipse fill="#fdb462" stroke="black" cx="82" cy="-66.8" rx="58.44" ry="18"/>
<text text-anchor="middle" x="82" y="-62.6" font-family="Times,serif" font-size="14.00">UserService</text>
</g>
<!-- UserService&#45;&gt;AppModule -->
<g id="edge8" class="edge">
<title>UserService&#45;&gt;AppModule</title>
<path fill="none" stroke="black" d="M82,-85.09C82,-107.01 82,-140.8 82,-140.8 82,-140.8 458.18,-140.8 458.18,-140.8"/>
<polygon fill="black" stroke="black" points="458.18,-144.3 468.18,-140.8 458.18,-137.3 458.18,-144.3"/>
</g>
</g>
</svg>
