<?xml version="1.0" encoding="UTF-8" standalone="no"?>
<!DOCTYPE svg PUBLIC "-//W3C//DTD SVG 1.1//EN"
 "http://www.w3.org/Graphics/SVG/1.1/DTD/svg11.dtd">
<!-- Generated by graphviz version 2.47.3 (20210619.1520)
 -->
<!-- Title: dependencies Pages: 1 -->
<svg width="920pt" height="247pt"
 viewBox="0.00 0.00 920.00 246.80" xmlns="http://www.w3.org/2000/svg" xmlns:xlink="http://www.w3.org/1999/xlink">
<g id="graph0" class="graph" transform="scale(1 1) rotate(0) translate(4 242.8)">
<title>dependencies</title>
<polygon fill="white" stroke="transparent" points="-4,4 -4,-242.8 916,-242.8 916,4 -4,4"/>
<text text-anchor="middle" x="456" y="-8.2" font-family="sans-serif" font-size="14.00">dependencies</text>
<g id="clust1" class="cluster">
<title>cluster_AppModule</title>
<polygon fill="none" stroke="black" stroke-dasharray="1,5" points="8,-32.8 8,-230.8 904,-230.8 904,-32.8 8,-32.8"/>
</g>
<g id="clust2" class="cluster">
<title>cluster_AppModule_declarations</title>
<polygon fill="none" stroke="black" points="156,-40.8 156,-92.8 896,-92.8 896,-40.8 156,-40.8"/>
</g>
<g id="clust10" class="cluster">
<title>cluster_AppModule_bootstrap</title>
<polygon fill="none" stroke="black" points="387,-170.8 387,-222.8 511,-222.8 511,-170.8 387,-170.8"/>
</g>
<g id="clust11" class="cluster">
<title>cluster_AppModule_providers</title>
<polygon fill="none" stroke="black" points="16,-40.8 16,-92.8 148,-92.8 148,-40.8 16,-40.8"/>
</g>
<!-- AppComponent -->
<g id="node1" class="node">
<title>AppComponent</title>
<polygon fill="#ffffb3" stroke="black" points="887.94,-84.8 782.06,-84.8 782.06,-48.8 887.94,-48.8 887.94,-84.8"/>
<text text-anchor="middle" x="835" y="-62.6" font-family="Times,serif" font-size="14.00">AppComponent</text>
</g>
<!-- AppModule -->
<g id="node6" class="node">
<title>AppModule</title>
<polygon fill="#8dd3c7" stroke="black" points="490.66,-149.8 487.66,-153.8 466.66,-153.8 463.66,-149.8 407.34,-149.8 407.34,-113.8 490.66,-113.8 490.66,-149.8"/>
<text text-anchor="middle" x="449" y="-127.6" font-family="Times,serif" font-size="14.00">AppModule</text>
</g>
<!-- AppComponent&#45;&gt;AppModule -->
<g id="edge1" class="edge">
<title>AppComponent&#45;&gt;AppModule</title>
<path fill="none" stroke="black" d="M835,-85.08C835,-106.12 835,-137.8 835,-137.8 835,-137.8 500.68,-137.8 500.68,-137.8"/>
<polygon fill="black" stroke="black" points="500.68,-134.3 490.68,-137.8 500.68,-141.3 500.68,-134.3"/>
</g>
<!-- ChartsComponent -->
<g id="node2" class="node">
<title>ChartsComponent</title>
<polygon fill="#ffffb3" stroke="black" points="763.88,-84.8 646.12,-84.8 646.12,-48.8 763.88,-48.8 763.88,-84.8"/>
<text text-anchor="middle" x="705" y="-62.6" font-family="Times,serif" font-size="14.00">ChartsComponent</text>
</g>
<!-- ChartsComponent&#45;&gt;AppModule -->
<g id="edge2" class="edge">
<title>ChartsComponent&#45;&gt;AppModule</title>
<path fill="none" stroke="black" d="M705,-84.82C705,-102.17 705,-125.8 705,-125.8 705,-125.8 500.7,-125.8 500.7,-125.8"/>
<polygon fill="black" stroke="black" points="500.7,-122.3 490.7,-125.8 500.7,-129.3 500.7,-122.3"/>
</g>
<!-- DoctorCovidStatusComponent -->
<g id="node3" class="node">
<title>DoctorCovidStatusComponent</title>
<polygon fill="#ffffb3" stroke="black" points="628.16,-84.8 439.84,-84.8 439.84,-48.8 628.16,-48.8 628.16,-84.8"/>
<text text-anchor="middle" x="534" y="-62.6" font-family="Times,serif" font-size="14.00">DoctorCovidStatusComponent</text>
</g>
<!-- DoctorCovidStatusComponent&#45;&gt;AppModule -->
<g id="edge3" class="edge">
<title>DoctorCovidStatusComponent&#45;&gt;AppModule</title>
<path fill="none" stroke="black" d="M465.25,-84.91C465.25,-84.91 465.25,-103.79 465.25,-103.79"/>
<polygon fill="black" stroke="black" points="461.75,-103.79 465.25,-113.79 468.75,-103.79 461.75,-103.79"/>
</g>
<!-- LoginComponent -->
<g id="node4" class="node">
<title>LoginComponent</title>
<polygon fill="#ffffb3" stroke="black" points="421.28,-84.8 306.72,-84.8 306.72,-48.8 421.28,-48.8 421.28,-84.8"/>
<text text-anchor="middle" x="364" y="-62.6" font-family="Times,serif" font-size="14.00">LoginComponent</text>
</g>
<!-- LoginComponent&#45;&gt;AppModule -->
<g id="edge4" class="edge">
<title>LoginComponent&#45;&gt;AppModule</title>
<path fill="none" stroke="black" d="M414.28,-84.91C414.28,-84.91 414.28,-103.79 414.28,-103.79"/>
<polygon fill="black" stroke="black" points="410.78,-103.79 414.28,-113.79 417.78,-103.79 410.78,-103.79"/>
</g>
<!-- ProfilesComponent -->
<g id="node5" class="node">
<title>ProfilesComponent</title>
<polygon fill="#ffffb3" stroke="black" points="288.38,-84.8 163.62,-84.8 163.62,-48.8 288.38,-48.8 288.38,-84.8"/>
<text text-anchor="middle" x="226" y="-62.6" font-family="Times,serif" font-size="14.00">ProfilesComponent</text>
</g>
<!-- ProfilesComponent&#45;&gt;AppModule -->
<g id="edge5" class="edge">
<title>ProfilesComponent&#45;&gt;AppModule</title>
<path fill="none" stroke="black" d="M226,-84.82C226,-102.17 226,-125.8 226,-125.8 226,-125.8 397.32,-125.8 397.32,-125.8"/>
<polygon fill="black" stroke="black" points="397.32,-129.3 407.32,-125.8 397.32,-122.3 397.32,-129.3"/>
</g>
<!-- AppComponent  -->
<g id="node7" class="node">
<title>AppComponent </title>
<polygon fill="#80b1d3" stroke="black" points="503.44,-214.8 394.56,-214.8 394.56,-178.8 503.44,-178.8 503.44,-214.8"/>
<text text-anchor="middle" x="449" y="-192.6" font-family="Times,serif" font-size="14.00">AppComponent </text>
</g>
<!-- AppModule&#45;&gt;AppComponent  -->
<g id="edge6" class="edge">
<title>AppModule&#45;&gt;AppComponent </title>
<path fill="none" stroke="black" stroke-dasharray="1,5" d="M449,-149.91C449,-149.91 449,-168.79 449,-168.79"/>
<polygon fill="black" stroke="black" points="445.5,-168.79 449,-178.79 452.5,-168.79 445.5,-168.79"/>
</g>
<!-- UserService -->
<g id="node8" class="node">
<title>UserService</title>
<ellipse fill="#fdb462" stroke="black" cx="82" cy="-66.8" rx="58.44" ry="18"/>
<text text-anchor="middle" x="82" y="-62.6" font-family="Times,serif" font-size="14.00">UserService</text>
</g>
<!-- UserService&#45;&gt;AppModule -->
<g id="edge7" class="edge">
<title>UserService&#45;&gt;AppModule</title>
<path fill="none" stroke="black" d="M82,-85.08C82,-106.12 82,-137.8 82,-137.8 82,-137.8 397.26,-137.8 397.26,-137.8"/>
<polygon fill="black" stroke="black" points="397.26,-141.3 407.26,-137.8 397.26,-134.3 397.26,-141.3"/>
</g>
</g>
</svg>
