<?xml version="1.0" encoding="UTF-8" standalone="no"?>
<!DOCTYPE svg PUBLIC "-//W3C//DTD SVG 1.1//EN"
 "http://www.w3.org/Graphics/SVG/1.1/DTD/svg11.dtd">
<!-- Generated by graphviz version 2.47.3 (20210619.1520)
 -->
<!-- Title: dependencies Pages: 1 -->
<svg width="2251pt" height="247pt"
 viewBox="0.00 0.00 2251.00 246.80" xmlns="http://www.w3.org/2000/svg" xmlns:xlink="http://www.w3.org/1999/xlink">
<g id="graph0" class="graph" transform="scale(1 1) rotate(0) translate(4 242.8)">
<title>dependencies</title>
<polygon fill="white" stroke="transparent" points="-4,4 -4,-242.8 2247,-242.8 2247,4 -4,4"/>
<text text-anchor="middle" x="1121.5" y="-8.2" font-family="sans-serif" font-size="14.00">dependencies</text>
<g id="clust1" class="cluster">
<title>cluster_AppModule</title>
<polygon fill="none" stroke="black" stroke-dasharray="1,5" points="8,-32.8 8,-230.8 2235,-230.8 2235,-32.8 8,-32.8"/>
</g>
<g id="clust2" class="cluster">
<title>cluster_AppModule_declarations</title>
<polygon fill="none" stroke="black" points="1223,-40.8 1223,-92.8 2227,-92.8 2227,-40.8 1223,-40.8"/>
</g>
<g id="clust10" class="cluster">
<title>cluster_AppModule_imports</title>
<polygon fill="none" stroke="black" points="484,-40.8 484,-92.8 1215,-92.8 1215,-40.8 484,-40.8"/>
</g>
<g id="clust12" class="cluster">
<title>cluster_AppModule_bootstrap</title>
<polygon fill="none" stroke="black" points="1092,-170.8 1092,-222.8 1216,-222.8 1216,-170.8 1092,-170.8"/>
</g>
<g id="clust13" class="cluster">
<title>cluster_AppModule_providers</title>
<polygon fill="none" stroke="black" points="16,-40.8 16,-92.8 476,-92.8 476,-40.8 16,-40.8"/>
</g>
<!-- AppComponent -->
<g id="node1" class="node">
<title>AppComponent</title>
<polygon fill="#ffffb3" stroke="black" points="2218.94,-84.8 2113.06,-84.8 2113.06,-48.8 2218.94,-48.8 2218.94,-84.8"/>
<text text-anchor="middle" x="2166" y="-62.6" font-family="Times,serif" font-size="14.00">AppComponent</text>
</g>
<!-- AppModule -->
<g id="node8" class="node">
<title>AppModule</title>
<polygon fill="#8dd3c7" stroke="black" points="1195.66,-149.8 1192.66,-153.8 1171.66,-153.8 1168.66,-149.8 1112.34,-149.8 1112.34,-113.8 1195.66,-113.8 1195.66,-149.8"/>
<text text-anchor="middle" x="1154" y="-127.6" font-family="Times,serif" font-size="14.00">AppModule</text>
</g>
<!-- AppComponent&#45;&gt;AppModule -->
<g id="edge1" class="edge">
<title>AppComponent&#45;&gt;AppModule</title>
<path fill="none" stroke="black" d="M2166,-85.12C2166,-108.46 2166,-145.8 2166,-145.8 2166,-145.8 1205.88,-145.8 1205.88,-145.8"/>
<polygon fill="black" stroke="black" points="1205.88,-142.3 1195.88,-145.8 1205.88,-149.3 1205.88,-142.3"/>
</g>
<!-- ModeDirective -->
<g id="node2" class="node">
<title>ModeDirective</title>
<polygon fill="#ffffb3" stroke="black" points="2095.24,-84.8 1994.76,-84.8 1994.76,-48.8 2095.24,-48.8 2095.24,-84.8"/>
<text text-anchor="middle" x="2045" y="-62.6" font-family="Times,serif" font-size="14.00">ModeDirective</text>
</g>
<!-- ModeDirective&#45;&gt;AppModule -->
<g id="edge2" class="edge">
<title>ModeDirective&#45;&gt;AppModule</title>
<path fill="none" stroke="black" d="M2045,-85.09C2045,-107.01 2045,-140.8 2045,-140.8 2045,-140.8 1205.78,-140.8 1205.78,-140.8"/>
<polygon fill="black" stroke="black" points="1205.78,-137.3 1195.78,-140.8 1205.78,-144.3 1205.78,-137.3"/>
</g>
<!-- ProfilesComponent -->
<g id="node3" class="node">
<title>ProfilesComponent</title>
<polygon fill="#ffffb3" stroke="black" points="1976.38,-84.8 1851.62,-84.8 1851.62,-48.8 1976.38,-48.8 1976.38,-84.8"/>
<text text-anchor="middle" x="1914" y="-62.6" font-family="Times,serif" font-size="14.00">ProfilesComponent</text>
</g>
<!-- ProfilesComponent&#45;&gt;AppModule -->
<g id="edge3" class="edge">
<title>ProfilesComponent&#45;&gt;AppModule</title>
<path fill="none" stroke="black" d="M1914,-84.83C1914,-105.57 1914,-136.8 1914,-136.8 1914,-136.8 1205.67,-136.8 1205.67,-136.8"/>
<polygon fill="black" stroke="black" points="1205.67,-133.3 1195.67,-136.8 1205.67,-140.3 1205.67,-133.3"/>
</g>
<!-- ChartsComponent -->
<g id="node4" class="node">
<title>ChartsComponent</title>
<polygon fill="#ffffb3" stroke="black" points="1833.88,-84.8 1716.12,-84.8 1716.12,-48.8 1833.88,-48.8 1833.88,-84.8"/>
<text text-anchor="middle" x="1775" y="-62.6" font-family="Times,serif" font-size="14.00">ChartsComponent</text>
</g>
<!-- ChartsComponent&#45;&gt;AppModule -->
<g id="edge4" class="edge">
<title>ChartsComponent&#45;&gt;AppModule</title>
<path fill="none" stroke="black" d="M1775,-84.91C1775,-104.14 1775,-131.8 1775,-131.8 1775,-131.8 1205.71,-131.8 1205.71,-131.8"/>
<polygon fill="black" stroke="black" points="1205.71,-128.3 1195.71,-131.8 1205.71,-135.3 1205.71,-128.3"/>
</g>
<!-- LoginComponent -->
<g id="node5" class="node">
<title>LoginComponent</title>
<polygon fill="#ffffb3" stroke="black" points="1698.28,-84.8 1583.72,-84.8 1583.72,-48.8 1698.28,-48.8 1698.28,-84.8"/>
<text text-anchor="middle" x="1641" y="-62.6" font-family="Times,serif" font-size="14.00">LoginComponent</text>
</g>
<!-- LoginComponent&#45;&gt;AppModule -->
<g id="edge5" class="edge">
<title>LoginComponent&#45;&gt;AppModule</title>
<path fill="none" stroke="black" d="M1641,-85.1C1641,-103.07 1641,-127.8 1641,-127.8 1641,-127.8 1205.94,-127.8 1205.94,-127.8"/>
<polygon fill="black" stroke="black" points="1205.94,-124.3 1195.94,-127.8 1205.94,-131.3 1205.94,-124.3"/>
</g>
<!-- DoctorCovidStatusComponent -->
<g id="node6" class="node">
<title>DoctorCovidStatusComponent</title>
<polygon fill="#ffffb3" stroke="black" points="1565.16,-84.8 1376.84,-84.8 1376.84,-48.8 1565.16,-48.8 1565.16,-84.8"/>
<text text-anchor="middle" x="1471" y="-62.6" font-family="Times,serif" font-size="14.00">DoctorCovidStatusComponent</text>
</g>
<!-- DoctorCovidStatusComponent&#45;&gt;AppModule -->
<g id="edge6" class="edge">
<title>DoctorCovidStatusComponent&#45;&gt;AppModule</title>
<path fill="none" stroke="black" d="M1471,-84.83C1471,-101.2 1471,-122.8 1471,-122.8 1471,-122.8 1205.77,-122.8 1205.77,-122.8"/>
<polygon fill="black" stroke="black" points="1205.77,-119.3 1195.77,-122.8 1205.77,-126.3 1205.77,-119.3"/>
</g>
<!-- RegisterComponent -->
<g id="node7" class="node">
<title>RegisterComponent</title>
<polygon fill="#ffffb3" stroke="black" points="1358.98,-84.8 1231.02,-84.8 1231.02,-48.8 1358.98,-48.8 1358.98,-84.8"/>
<text text-anchor="middle" x="1295" y="-62.6" font-family="Times,serif" font-size="14.00">RegisterComponent</text>
</g>
<!-- RegisterComponent&#45;&gt;AppModule -->
<g id="edge7" class="edge">
<title>RegisterComponent&#45;&gt;AppModule</title>
<path fill="none" stroke="black" d="M1295,-84.99C1295,-99.98 1295,-118.8 1295,-118.8 1295,-118.8 1205.92,-118.8 1205.92,-118.8"/>
<polygon fill="black" stroke="black" points="1205.92,-115.3 1195.92,-118.8 1205.92,-122.3 1205.92,-115.3"/>
</g>
<!-- AppComponent  -->
<g id="node14" class="node">
<title>AppComponent </title>
<polygon fill="#80b1d3" stroke="black" points="1208.44,-214.8 1099.56,-214.8 1099.56,-178.8 1208.44,-178.8 1208.44,-214.8"/>
<text text-anchor="middle" x="1154" y="-192.6" font-family="Times,serif" font-size="14.00">AppComponent </text>
</g>
<!-- AppModule&#45;&gt;AppComponent  -->
<g id="edge13" class="edge">
<title>AppModule&#45;&gt;AppComponent </title>
<path fill="none" stroke="black" stroke-dasharray="1,5" d="M1154,-149.91C1154,-149.91 1154,-168.79 1154,-168.79"/>
<polygon fill="black" stroke="black" points="1150.5,-168.79 1154,-178.79 1157.5,-168.79 1150.5,-168.79"/>
</g>
<!-- BrowserModule -->
<g id="node9" class="node">
<title>BrowserModule</title>
<polygon fill="#8dd3c7" stroke="black" points="1207.47,-84.8 1204.47,-88.8 1183.47,-88.8 1180.47,-84.8 1100.53,-84.8 1100.53,-48.8 1207.47,-48.8 1207.47,-84.8"/>
<text text-anchor="middle" x="1154" y="-62.6" font-family="Times,serif" font-size="14.00">BrowserModule</text>
</g>
<!-- BrowserModule&#45;&gt;AppModule -->
<g id="edge8" class="edge">
<title>BrowserModule&#45;&gt;AppModule</title>
<path fill="none" stroke="black" d="M1154,-84.91C1154,-84.91 1154,-103.79 1154,-103.79"/>
<polygon fill="black" stroke="black" points="1150.5,-103.79 1154,-113.79 1157.5,-103.79 1150.5,-103.79"/>
</g>
<!-- HttpClientModule -->
<g id="node10" class="node">
<title>HttpClientModule</title>
<polygon fill="#8dd3c7" stroke="black" points="1082.16,-84.8 1079.16,-88.8 1058.16,-88.8 1055.16,-84.8 963.84,-84.8 963.84,-48.8 1082.16,-48.8 1082.16,-84.8"/>
<text text-anchor="middle" x="1023" y="-62.6" font-family="Times,serif" font-size="14.00">HttpClientModule</text>
</g>
<!-- HttpClientModule&#45;&gt;AppModule -->
<g id="edge9" class="edge">
<title>HttpClientModule&#45;&gt;AppModule</title>
<path fill="none" stroke="black" d="M1023,-84.99C1023,-99.98 1023,-118.8 1023,-118.8 1023,-118.8 1102.19,-118.8 1102.19,-118.8"/>
<polygon fill="black" stroke="black" points="1102.19,-122.3 1112.19,-118.8 1102.19,-115.3 1102.19,-122.3"/>
</g>
<!-- FormsModule -->
<g id="node11" class="node">
<title>FormsModule</title>
<polygon fill="#8dd3c7" stroke="black" points="945.83,-84.8 942.83,-88.8 921.83,-88.8 918.83,-84.8 850.17,-84.8 850.17,-48.8 945.83,-48.8 945.83,-84.8"/>
<text text-anchor="middle" x="898" y="-62.6" font-family="Times,serif" font-size="14.00">FormsModule</text>
</g>
<!-- FormsModule&#45;&gt;AppModule -->
<g id="edge10" class="edge">
<title>FormsModule&#45;&gt;AppModule</title>
<path fill="none" stroke="black" d="M898,-84.83C898,-101.2 898,-122.8 898,-122.8 898,-122.8 1102.3,-122.8 1102.3,-122.8"/>
<polygon fill="black" stroke="black" points="1102.3,-126.3 1112.3,-122.8 1102.3,-119.3 1102.3,-126.3"/>
</g>
<!-- ReactiveFormsModule -->
<g id="node12" class="node">
<title>ReactiveFormsModule</title>
<polygon fill="#8dd3c7" stroke="black" points="832.3,-84.8 829.3,-88.8 808.3,-88.8 805.3,-84.8 687.7,-84.8 687.7,-48.8 832.3,-48.8 832.3,-84.8"/>
<text text-anchor="middle" x="760" y="-62.6" font-family="Times,serif" font-size="14.00">ReactiveFormsModule</text>
</g>
<!-- ReactiveFormsModule&#45;&gt;AppModule -->
<g id="edge11" class="edge">
<title>ReactiveFormsModule&#45;&gt;AppModule</title>
<path fill="none" stroke="black" d="M760,-85.1C760,-103.07 760,-127.8 760,-127.8 760,-127.8 1102.21,-127.8 1102.21,-127.8"/>
<polygon fill="black" stroke="black" points="1102.21,-131.3 1112.21,-127.8 1102.21,-124.3 1102.21,-131.3"/>
</g>
<!-- RouterModule.forRoot(args) -->
<g id="node13" class="node">
<title>RouterModule.forRoot(args)</title>
<polygon fill="#8dd3c7" stroke="black" points="669.84,-84.8 666.84,-88.8 645.84,-88.8 642.84,-84.8 492.16,-84.8 492.16,-48.8 669.84,-48.8 669.84,-84.8"/>
<text text-anchor="middle" x="581" y="-62.6" font-family="Times,serif" font-size="14.00">RouterModule.forRoot(args)</text>
</g>
<!-- RouterModule.forRoot(args)&#45;&gt;AppModule -->
<g id="edge12" class="edge">
<title>RouterModule.forRoot(args)&#45;&gt;AppModule</title>
<path fill="none" stroke="black" d="M581,-84.91C581,-104.14 581,-131.8 581,-131.8 581,-131.8 1102.33,-131.8 1102.33,-131.8"/>
<polygon fill="black" stroke="black" points="1102.33,-135.3 1112.33,-131.8 1102.33,-128.3 1102.33,-135.3"/>
</g>
<!-- UserService -->
<g id="node15" class="node">
<title>UserService</title>
<ellipse fill="#fdb462" stroke="black" cx="410" cy="-66.8" rx="58.44" ry="18"/>
<text text-anchor="middle" x="410" y="-62.6" font-family="Times,serif" font-size="14.00">UserService</text>
</g>
<!-- UserService&#45;&gt;AppModule -->
<g id="edge14" class="edge">
<title>UserService&#45;&gt;AppModule</title>
<path fill="none" stroke="black" d="M410,-84.83C410,-105.57 410,-136.8 410,-136.8 410,-136.8 1102.14,-136.8 1102.14,-136.8"/>
<polygon fill="black" stroke="black" points="1102.14,-140.3 1112.14,-136.8 1102.14,-133.3 1102.14,-140.3"/>
</g>
<!-- NurseService -->
<g id="node16" class="node">
<title>NurseService</title>
<ellipse fill="#fdb462" stroke="black" cx="271" cy="-66.8" rx="63.1" ry="18"/>
<text text-anchor="middle" x="271" y="-62.6" font-family="Times,serif" font-size="14.00">NurseService</text>
</g>
<!-- NurseService&#45;&gt;AppModule -->
<g id="edge15" class="edge">
<title>NurseService&#45;&gt;AppModule</title>
<path fill="none" stroke="black" d="M271,-85.09C271,-107.01 271,-140.8 271,-140.8 271,-140.8 1102.3,-140.8 1102.3,-140.8"/>
<polygon fill="black" stroke="black" points="1102.3,-144.3 1112.3,-140.8 1102.3,-137.3 1102.3,-144.3"/>
</g>
<!-- AuthGuardService -->
<g id="node17" class="node">
<title>AuthGuardService</title>
<ellipse fill="#fdb462" stroke="black" cx="107" cy="-66.8" rx="83.37" ry="18"/>
<text text-anchor="middle" x="107" y="-62.6" font-family="Times,serif" font-size="14.00">AuthGuardService</text>
</g>
<!-- AuthGuardService&#45;&gt;AppModule -->
<g id="edge16" class="edge">
<title>AuthGuardService&#45;&gt;AppModule</title>
<path fill="none" stroke="black" d="M107,-85.12C107,-108.46 107,-145.8 107,-145.8 107,-145.8 1102.31,-145.8 1102.31,-145.8"/>
<polygon fill="black" stroke="black" points="1102.31,-149.3 1112.31,-145.8 1102.31,-142.3 1102.31,-149.3"/>
</g>
</g>
</svg>
