<?xml version="1.0" encoding="UTF-8" standalone="no"?>
<!DOCTYPE svg PUBLIC "-//W3C//DTD SVG 1.1//EN"
 "http://www.w3.org/Graphics/SVG/1.1/DTD/svg11.dtd">
<!-- Generated by graphviz version 2.47.3 (20210619.1520)
 -->
<!-- Title: dependencies Pages: 1 -->
<svg width="920pt" height="247pt"
 viewBox="0.00 0.00 920.00 246.80" xmlns="http://www.w3.org/2000/svg" xmlns:xlink="http://www.w3.org/1999/xlink">
<g id="graph0" class="graph" transform="scale(1 1) rotate(0) translate(4 242.8)">
<title>dependencies</title>
<polygon fill="white" stroke="transparent" points="-4,4 -4,-242.8 916,-242.8 916,4 -4,4"/>
<text text-anchor="middle" x="456" y="-8.2" font-family="sans-serif" font-size="14.00">dependencies</text>
<g id="clust1" class="cluster">
<title>cluster_AppModule</title>
<polygon fill="none" stroke="black" stroke-dasharray="1,5" points="8,-32.8 8,-230.8 904,-230.8 904,-32.8 8,-32.8"/>
</g>
<g id="clust11" class="cluster">
<title>cluster_AppModule_providers</title>
<polygon fill="none" stroke="black" points="764,-40.8 764,-92.8 896,-92.8 896,-40.8 764,-40.8"/>
</g>
<g id="clust2" class="cluster">
<title>cluster_AppModule_declarations</title>
<polygon fill="none" stroke="black" points="16,-40.8 16,-92.8 756,-92.8 756,-40.8 16,-40.8"/>
</g>
<g id="clust10" class="cluster">
<title>cluster_AppModule_bootstrap</title>
<polygon fill="none" stroke="black" points="417,-170.8 417,-222.8 541,-222.8 541,-170.8 417,-170.8"/>
</g>
<!-- AppComponent -->
<g id="node1" class="node">
<title>AppComponent</title>
<polygon fill="#ffffb3" stroke="black" points="747.94,-84.8 642.06,-84.8 642.06,-48.8 747.94,-48.8 747.94,-84.8"/>
<text text-anchor="middle" x="695" y="-62.6" font-family="Times,serif" font-size="14.00">AppComponent</text>
</g>
<!-- AppModule -->
<g id="node6" class="node">
<title>AppModule</title>
<polygon fill="#8dd3c7" stroke="black" points="520.66,-149.8 517.66,-153.8 496.66,-153.8 493.66,-149.8 437.34,-149.8 437.34,-113.8 520.66,-113.8 520.66,-149.8"/>
<text text-anchor="middle" x="479" y="-127.6" font-family="Times,serif" font-size="14.00">AppModule</text>
</g>
<!-- AppComponent&#45;&gt;AppModule -->
<g id="edge1" class="edge">
<title>AppComponent&#45;&gt;AppModule</title>
<path fill="none" stroke="black" d="M695,-84.82C695,-102.17 695,-125.8 695,-125.8 695,-125.8 530.9,-125.8 530.9,-125.8"/>
<polygon fill="black" stroke="black" points="530.9,-122.3 520.9,-125.8 530.9,-129.3 530.9,-122.3"/>
</g>
<!-- ChartsComponent -->
<g id="node2" class="node">
<title>ChartsComponent</title>
<polygon fill="#ffffb3" stroke="black" points="623.88,-84.8 506.12,-84.8 506.12,-48.8 623.88,-48.8 623.88,-84.8"/>
<text text-anchor="middle" x="565" y="-62.6" font-family="Times,serif" font-size="14.00">ChartsComponent</text>
</g>
<!-- ChartsComponent&#45;&gt;AppModule -->
<g id="edge2" class="edge">
<title>ChartsComponent&#45;&gt;AppModule</title>
<path fill="none" stroke="black" d="M513.44,-84.91C513.44,-84.91 513.44,-103.79 513.44,-103.79"/>
<polygon fill="black" stroke="black" points="509.94,-103.79 513.44,-113.79 516.94,-103.79 509.94,-103.79"/>
</g>
<!-- DoctorCovidStatusComponent -->
<g id="node3" class="node">
<title>DoctorCovidStatusComponent</title>
<polygon fill="#ffffb3" stroke="black" points="488.16,-84.8 299.84,-84.8 299.84,-48.8 488.16,-48.8 488.16,-84.8"/>
<text text-anchor="middle" x="394" y="-62.6" font-family="Times,serif" font-size="14.00">DoctorCovidStatusComponent</text>
</g>
<!-- DoctorCovidStatusComponent&#45;&gt;AppModule -->
<g id="edge3" class="edge">
<title>DoctorCovidStatusComponent&#45;&gt;AppModule</title>
<path fill="none" stroke="black" d="M462.75,-84.91C462.75,-84.91 462.75,-103.79 462.75,-103.79"/>
<polygon fill="black" stroke="black" points="459.25,-103.79 462.75,-113.79 466.25,-103.79 459.25,-103.79"/>
</g>
<!-- LoginComponent -->
<g id="node4" class="node">
<title>LoginComponent</title>
<polygon fill="#ffffb3" stroke="black" points="281.28,-84.8 166.72,-84.8 166.72,-48.8 281.28,-48.8 281.28,-84.8"/>
<text text-anchor="middle" x="224" y="-62.6" font-family="Times,serif" font-size="14.00">LoginComponent</text>
</g>
<!-- LoginComponent&#45;&gt;AppModule -->
<g id="edge4" class="edge">
<title>LoginComponent&#45;&gt;AppModule</title>
<path fill="none" stroke="black" d="M224,-84.82C224,-102.17 224,-125.8 224,-125.8 224,-125.8 427.18,-125.8 427.18,-125.8"/>
<polygon fill="black" stroke="black" points="427.18,-129.3 437.18,-125.8 427.18,-122.3 427.18,-129.3"/>
</g>
<!-- ProfilesComponent -->
<g id="node5" class="node">
<title>ProfilesComponent</title>
<polygon fill="#ffffb3" stroke="black" points="148.38,-84.8 23.62,-84.8 23.62,-48.8 148.38,-48.8 148.38,-84.8"/>
<text text-anchor="middle" x="86" y="-62.6" font-family="Times,serif" font-size="14.00">ProfilesComponent</text>
</g>
<!-- ProfilesComponent&#45;&gt;AppModule -->
<g id="edge5" class="edge">
<title>ProfilesComponent&#45;&gt;AppModule</title>
<path fill="none" stroke="black" d="M86,-85.08C86,-106.12 86,-137.8 86,-137.8 86,-137.8 427.31,-137.8 427.31,-137.8"/>
<polygon fill="black" stroke="black" points="427.31,-141.3 437.31,-137.8 427.31,-134.3 427.31,-141.3"/>
</g>
<!-- AppComponent  -->
<g id="node7" class="node">
<title>AppComponent </title>
<polygon fill="#80b1d3" stroke="black" points="533.44,-214.8 424.56,-214.8 424.56,-178.8 533.44,-178.8 533.44,-214.8"/>
<text text-anchor="middle" x="479" y="-192.6" font-family="Times,serif" font-size="14.00">AppComponent </text>
</g>
<!-- AppModule&#45;&gt;AppComponent  -->
<g id="edge6" class="edge">
<title>AppModule&#45;&gt;AppComponent </title>
<path fill="none" stroke="black" stroke-dasharray="1,5" d="M479,-149.91C479,-149.91 479,-168.79 479,-168.79"/>
<polygon fill="black" stroke="black" points="475.5,-168.79 479,-178.79 482.5,-168.79 475.5,-168.79"/>
</g>
<!-- UserService -->
<g id="node8" class="node">
<title>UserService</title>
<ellipse fill="#fdb462" stroke="black" cx="830" cy="-66.8" rx="58.44" ry="18"/>
<text text-anchor="middle" x="830" y="-62.6" font-family="Times,serif" font-size="14.00">UserService</text>
</g>
<!-- UserService&#45;&gt;AppModule -->
<g id="edge7" class="edge">
<title>UserService&#45;&gt;AppModule</title>
<path fill="none" stroke="black" d="M830,-85.08C830,-106.12 830,-137.8 830,-137.8 830,-137.8 530.99,-137.8 530.99,-137.8"/>
<polygon fill="black" stroke="black" points="530.99,-134.3 520.99,-137.8 530.99,-141.3 530.99,-134.3"/>
</g>
</g>
</svg>
