<?xml version="1.0" encoding="UTF-8" standalone="no"?>
<!DOCTYPE svg PUBLIC "-//W3C//DTD SVG 1.1//EN"
 "http://www.w3.org/Graphics/SVG/1.1/DTD/svg11.dtd">
<!-- Generated by graphviz version 2.47.3 (20210619.1520)
 -->
<!-- Title: dependencies Pages: 1 -->
<svg width="1066pt" height="247pt"
 viewBox="0.00 0.00 1066.00 246.80" xmlns="http://www.w3.org/2000/svg" xmlns:xlink="http://www.w3.org/1999/xlink">
<g id="graph0" class="graph" transform="scale(1 1) rotate(0) translate(4 242.8)">
<title>dependencies</title>
<polygon fill="white" stroke="transparent" points="-4,4 -4,-242.8 1062,-242.8 1062,4 -4,4"/>
<text text-anchor="middle" x="529" y="-8.2" font-family="sans-serif" font-size="14.00">dependencies</text>
<g id="clust1" class="cluster">
<title>cluster_AppModule</title>
<polygon fill="none" stroke="black" stroke-dasharray="1,5" points="8,-32.8 8,-230.8 1050,-230.8 1050,-32.8 8,-32.8"/>
</g>
<g id="clust11" class="cluster">
<title>cluster_AppModule_bootstrap</title>
<polygon fill="none" stroke="black" points="478,-170.8 478,-222.8 602,-222.8 602,-170.8 478,-170.8"/>
</g>
<g id="clust12" class="cluster">
<title>cluster_AppModule_providers</title>
<polygon fill="none" stroke="black" points="910,-40.8 910,-92.8 1042,-92.8 1042,-40.8 910,-40.8"/>
</g>
<g id="clust2" class="cluster">
<title>cluster_AppModule_declarations</title>
<polygon fill="none" stroke="black" points="16,-40.8 16,-92.8 902,-92.8 902,-40.8 16,-40.8"/>
</g>
<!-- AppComponent -->
<g id="node1" class="node">
<title>AppComponent</title>
<polygon fill="#ffffb3" stroke="black" points="893.94,-84.8 788.06,-84.8 788.06,-48.8 893.94,-48.8 893.94,-84.8"/>
<text text-anchor="middle" x="841" y="-62.6" font-family="Times,serif" font-size="14.00">AppComponent</text>
</g>
<!-- AppModule -->
<g id="node7" class="node">
<title>AppModule</title>
<polygon fill="#8dd3c7" stroke="black" points="581.66,-149.8 578.66,-153.8 557.66,-153.8 554.66,-149.8 498.34,-149.8 498.34,-113.8 581.66,-113.8 581.66,-149.8"/>
<text text-anchor="middle" x="540" y="-127.6" font-family="Times,serif" font-size="14.00">AppModule</text>
</g>
<!-- AppComponent&#45;&gt;AppModule -->
<g id="edge1" class="edge">
<title>AppComponent&#45;&gt;AppModule</title>
<path fill="none" stroke="black" d="M841,-84.91C841,-104.14 841,-131.8 841,-131.8 841,-131.8 591.85,-131.8 591.85,-131.8"/>
<polygon fill="black" stroke="black" points="591.85,-128.3 581.85,-131.8 591.85,-135.3 591.85,-128.3"/>
</g>
<!-- ChartsComponent -->
<g id="node2" class="node">
<title>ChartsComponent</title>
<polygon fill="#ffffb3" stroke="black" points="769.88,-84.8 652.12,-84.8 652.12,-48.8 769.88,-48.8 769.88,-84.8"/>
<text text-anchor="middle" x="711" y="-62.6" font-family="Times,serif" font-size="14.00">ChartsComponent</text>
</g>
<!-- ChartsComponent&#45;&gt;AppModule -->
<g id="edge2" class="edge">
<title>ChartsComponent&#45;&gt;AppModule</title>
<path fill="none" stroke="black" d="M711,-84.83C711,-101.2 711,-122.8 711,-122.8 711,-122.8 591.83,-122.8 591.83,-122.8"/>
<polygon fill="black" stroke="black" points="591.83,-119.3 581.83,-122.8 591.83,-126.3 591.83,-119.3"/>
</g>
<!-- DoctorCovidStatusComponent -->
<g id="node3" class="node">
<title>DoctorCovidStatusComponent</title>
<polygon fill="#ffffb3" stroke="black" points="634.16,-84.8 445.84,-84.8 445.84,-48.8 634.16,-48.8 634.16,-84.8"/>
<text text-anchor="middle" x="540" y="-62.6" font-family="Times,serif" font-size="14.00">DoctorCovidStatusComponent</text>
</g>
<!-- DoctorCovidStatusComponent&#45;&gt;AppModule -->
<g id="edge3" class="edge">
<title>DoctorCovidStatusComponent&#45;&gt;AppModule</title>
<path fill="none" stroke="black" d="M540,-84.91C540,-84.91 540,-103.79 540,-103.79"/>
<polygon fill="black" stroke="black" points="536.5,-103.79 540,-113.79 543.5,-103.79 536.5,-103.79"/>
</g>
<!-- LoginComponent -->
<g id="node4" class="node">
<title>LoginComponent</title>
<polygon fill="#ffffb3" stroke="black" points="427.28,-84.8 312.72,-84.8 312.72,-48.8 427.28,-48.8 427.28,-84.8"/>
<text text-anchor="middle" x="370" y="-62.6" font-family="Times,serif" font-size="14.00">LoginComponent</text>
</g>
<!-- LoginComponent&#45;&gt;AppModule -->
<g id="edge4" class="edge">
<title>LoginComponent&#45;&gt;AppModule</title>
<path fill="none" stroke="black" d="M370,-84.83C370,-101.2 370,-122.8 370,-122.8 370,-122.8 487.98,-122.8 487.98,-122.8"/>
<polygon fill="black" stroke="black" points="487.98,-126.3 497.98,-122.8 487.98,-119.3 487.98,-126.3"/>
</g>
<!-- ProfilesComponent -->
<g id="node5" class="node">
<title>ProfilesComponent</title>
<polygon fill="#ffffb3" stroke="black" points="294.38,-84.8 169.62,-84.8 169.62,-48.8 294.38,-48.8 294.38,-84.8"/>
<text text-anchor="middle" x="232" y="-62.6" font-family="Times,serif" font-size="14.00">ProfilesComponent</text>
</g>
<!-- ProfilesComponent&#45;&gt;AppModule -->
<g id="edge5" class="edge">
<title>ProfilesComponent&#45;&gt;AppModule</title>
<path fill="none" stroke="black" d="M232,-84.91C232,-104.14 232,-131.8 232,-131.8 232,-131.8 488.14,-131.8 488.14,-131.8"/>
<polygon fill="black" stroke="black" points="488.14,-135.3 498.14,-131.8 488.14,-128.3 488.14,-135.3"/>
</g>
<!-- RegisterComponent -->
<g id="node6" class="node">
<title>RegisterComponent</title>
<polygon fill="#ffffb3" stroke="black" points="151.98,-84.8 24.02,-84.8 24.02,-48.8 151.98,-48.8 151.98,-84.8"/>
<text text-anchor="middle" x="88" y="-62.6" font-family="Times,serif" font-size="14.00">RegisterComponent</text>
</g>
<!-- RegisterComponent&#45;&gt;AppModule -->
<g id="edge6" class="edge">
<title>RegisterComponent&#45;&gt;AppModule</title>
<path fill="none" stroke="black" d="M88,-85.09C88,-107.01 88,-140.8 88,-140.8 88,-140.8 488.29,-140.8 488.29,-140.8"/>
<polygon fill="black" stroke="black" points="488.29,-144.3 498.29,-140.8 488.29,-137.3 488.29,-144.3"/>
</g>
<!-- AppComponent  -->
<g id="node8" class="node">
<title>AppComponent </title>
<polygon fill="#80b1d3" stroke="black" points="594.44,-214.8 485.56,-214.8 485.56,-178.8 594.44,-178.8 594.44,-214.8"/>
<text text-anchor="middle" x="540" y="-192.6" font-family="Times,serif" font-size="14.00">AppComponent </text>
</g>
<!-- AppModule&#45;&gt;AppComponent  -->
<g id="edge7" class="edge">
<title>AppModule&#45;&gt;AppComponent </title>
<path fill="none" stroke="black" stroke-dasharray="1,5" d="M540,-149.91C540,-149.91 540,-168.79 540,-168.79"/>
<polygon fill="black" stroke="black" points="536.5,-168.79 540,-178.79 543.5,-168.79 536.5,-168.79"/>
</g>
<!-- UserService -->
<g id="node9" class="node">
<title>UserService</title>
<ellipse fill="#fdb462" stroke="black" cx="976" cy="-66.8" rx="58.44" ry="18"/>
<text text-anchor="middle" x="976" y="-62.6" font-family="Times,serif" font-size="14.00">UserService</text>
</g>
<!-- UserService&#45;&gt;AppModule -->
<g id="edge8" class="edge">
<title>UserService&#45;&gt;AppModule</title>
<path fill="none" stroke="black" d="M976,-85.09C976,-107.01 976,-140.8 976,-140.8 976,-140.8 591.81,-140.8 591.81,-140.8"/>
<polygon fill="black" stroke="black" points="591.81,-137.3 581.81,-140.8 591.81,-144.3 591.81,-137.3"/>
</g>
</g>
</svg>
