<?xml version="1.0" encoding="UTF-8" standalone="no"?>
<!DOCTYPE svg PUBLIC "-//W3C//DTD SVG 1.1//EN"
 "http://www.w3.org/Graphics/SVG/1.1/DTD/svg11.dtd">
<!-- Generated by graphviz version 2.47.3 (20210619.1520)
 -->
<!-- Title: dependencies Pages: 1 -->
<svg width="1513pt" height="247pt"
 viewBox="0.00 0.00 1513.00 246.80" xmlns="http://www.w3.org/2000/svg" xmlns:xlink="http://www.w3.org/1999/xlink">
<g id="graph0" class="graph" transform="scale(1 1) rotate(0) translate(4 242.8)">
<title>dependencies</title>
<polygon fill="white" stroke="transparent" points="-4,4 -4,-242.8 1509,-242.8 1509,4 -4,4"/>
<text text-anchor="middle" x="752.5" y="-8.2" font-family="sans-serif" font-size="14.00">dependencies</text>
<g id="clust1" class="cluster">
<title>cluster_AppModule</title>
<polygon fill="none" stroke="black" stroke-dasharray="1,5" points="8,-32.8 8,-230.8 1497,-230.8 1497,-32.8 8,-32.8"/>
</g>
<g id="clust12" class="cluster">
<title>cluster_AppModule_bootstrap</title>
<polygon fill="none" stroke="black" points="703,-170.8 703,-222.8 827,-222.8 827,-170.8 703,-170.8"/>
</g>
<g id="clust2" class="cluster">
<title>cluster_AppModule_declarations</title>
<polygon fill="none" stroke="black" points="484,-40.8 484,-92.8 1489,-92.8 1489,-40.8 484,-40.8"/>
</g>
<g id="clust13" class="cluster">
<title>cluster_AppModule_providers</title>
<polygon fill="none" stroke="black" points="16,-40.8 16,-92.8 476,-92.8 476,-40.8 16,-40.8"/>
</g>
<!-- AppComponent -->
<g id="node1" class="node">
<title>AppComponent</title>
<polygon fill="#ffffb3" stroke="black" points="1480.94,-84.8 1375.06,-84.8 1375.06,-48.8 1480.94,-48.8 1480.94,-84.8"/>
<text text-anchor="middle" x="1428" y="-62.6" font-family="Times,serif" font-size="14.00">AppComponent</text>
</g>
<!-- AppModule -->
<g id="node8" class="node">
<title>AppModule</title>
<polygon fill="#8dd3c7" stroke="black" points="806.66,-149.8 803.66,-153.8 782.66,-153.8 779.66,-149.8 723.34,-149.8 723.34,-113.8 806.66,-113.8 806.66,-149.8"/>
<text text-anchor="middle" x="765" y="-127.6" font-family="Times,serif" font-size="14.00">AppModule</text>
</g>
<!-- AppComponent&#45;&gt;AppModule -->
<g id="edge1" class="edge">
<title>AppComponent&#45;&gt;AppModule</title>
<path fill="none" stroke="black" d="M1428,-84.81C1428,-107.29 1428,-142.8 1428,-142.8 1428,-142.8 816.72,-142.8 816.72,-142.8"/>
<polygon fill="black" stroke="black" points="816.72,-139.3 806.72,-142.8 816.72,-146.3 816.72,-139.3"/>
</g>
<!-- ChartsComponent -->
<g id="node2" class="node">
<title>ChartsComponent</title>
<polygon fill="#ffffb3" stroke="black" points="1356.88,-84.8 1239.12,-84.8 1239.12,-48.8 1356.88,-48.8 1356.88,-84.8"/>
<text text-anchor="middle" x="1298" y="-62.6" font-family="Times,serif" font-size="14.00">ChartsComponent</text>
</g>
<!-- ChartsComponent&#45;&gt;AppModule -->
<g id="edge2" class="edge">
<title>ChartsComponent&#45;&gt;AppModule</title>
<path fill="none" stroke="black" d="M1298,-84.93C1298,-105.37 1298,-135.8 1298,-135.8 1298,-135.8 816.82,-135.8 816.82,-135.8"/>
<polygon fill="black" stroke="black" points="816.82,-132.3 806.82,-135.8 816.82,-139.3 816.82,-132.3"/>
</g>
<!-- DoctorCovidStatusComponent -->
<g id="node3" class="node">
<title>DoctorCovidStatusComponent</title>
<polygon fill="#ffffb3" stroke="black" points="1221.16,-84.8 1032.84,-84.8 1032.84,-48.8 1221.16,-48.8 1221.16,-84.8"/>
<text text-anchor="middle" x="1127" y="-62.6" font-family="Times,serif" font-size="14.00">DoctorCovidStatusComponent</text>
</g>
<!-- DoctorCovidStatusComponent&#45;&gt;AppModule -->
<g id="edge3" class="edge">
<title>DoctorCovidStatusComponent&#45;&gt;AppModule</title>
<path fill="none" stroke="black" d="M1127,-85.07C1127,-103.36 1127,-128.8 1127,-128.8 1127,-128.8 816.88,-128.8 816.88,-128.8"/>
<polygon fill="black" stroke="black" points="816.88,-125.3 806.88,-128.8 816.88,-132.3 816.88,-125.3"/>
</g>
<!-- LoginComponent -->
<g id="node4" class="node">
<title>LoginComponent</title>
<polygon fill="#ffffb3" stroke="black" points="1014.28,-84.8 899.72,-84.8 899.72,-48.8 1014.28,-48.8 1014.28,-84.8"/>
<text text-anchor="middle" x="957" y="-62.6" font-family="Times,serif" font-size="14.00">LoginComponent</text>
</g>
<!-- LoginComponent&#45;&gt;AppModule -->
<g id="edge4" class="edge">
<title>LoginComponent&#45;&gt;AppModule</title>
<path fill="none" stroke="black" d="M957,-84.81C957,-100.85 957,-121.8 957,-121.8 957,-121.8 816.66,-121.8 816.66,-121.8"/>
<polygon fill="black" stroke="black" points="816.66,-118.3 806.66,-121.8 816.66,-125.3 816.66,-118.3"/>
</g>
<!-- ModeDirective -->
<g id="node5" class="node">
<title>ModeDirective</title>
<polygon fill="#ffffb3" stroke="black" points="881.24,-84.8 780.76,-84.8 780.76,-48.8 881.24,-48.8 881.24,-84.8"/>
<text text-anchor="middle" x="831" y="-62.6" font-family="Times,serif" font-size="14.00">ModeDirective</text>
</g>
<!-- ModeDirective&#45;&gt;AppModule -->
<g id="edge5" class="edge">
<title>ModeDirective&#45;&gt;AppModule</title>
<path fill="none" stroke="black" d="M793.73,-84.91C793.73,-84.91 793.73,-103.79 793.73,-103.79"/>
<polygon fill="black" stroke="black" points="790.23,-103.79 793.73,-113.79 797.23,-103.79 790.23,-103.79"/>
</g>
<!-- ProfilesComponent -->
<g id="node6" class="node">
<title>ProfilesComponent</title>
<polygon fill="#ffffb3" stroke="black" points="762.38,-84.8 637.62,-84.8 637.62,-48.8 762.38,-48.8 762.38,-84.8"/>
<text text-anchor="middle" x="700" y="-62.6" font-family="Times,serif" font-size="14.00">ProfilesComponent</text>
</g>
<!-- ProfilesComponent&#45;&gt;AppModule -->
<g id="edge6" class="edge">
<title>ProfilesComponent&#45;&gt;AppModule</title>
<path fill="none" stroke="black" d="M742.81,-84.91C742.81,-84.91 742.81,-103.79 742.81,-103.79"/>
<polygon fill="black" stroke="black" points="739.31,-103.79 742.81,-113.79 746.31,-103.79 739.31,-103.79"/>
</g>
<!-- RegisterComponent -->
<g id="node7" class="node">
<title>RegisterComponent</title>
<polygon fill="#ffffb3" stroke="black" points="619.98,-84.8 492.02,-84.8 492.02,-48.8 619.98,-48.8 619.98,-84.8"/>
<text text-anchor="middle" x="556" y="-62.6" font-family="Times,serif" font-size="14.00">RegisterComponent</text>
</g>
<!-- RegisterComponent&#45;&gt;AppModule -->
<g id="edge7" class="edge">
<title>RegisterComponent&#45;&gt;AppModule</title>
<path fill="none" stroke="black" d="M556,-84.81C556,-100.85 556,-121.8 556,-121.8 556,-121.8 713.21,-121.8 713.21,-121.8"/>
<polygon fill="black" stroke="black" points="713.21,-125.3 723.21,-121.8 713.21,-118.3 713.21,-125.3"/>
</g>
<!-- AppComponent  -->
<g id="node9" class="node">
<title>AppComponent </title>
<polygon fill="#80b1d3" stroke="black" points="819.44,-214.8 710.56,-214.8 710.56,-178.8 819.44,-178.8 819.44,-214.8"/>
<text text-anchor="middle" x="765" y="-192.6" font-family="Times,serif" font-size="14.00">AppComponent </text>
</g>
<!-- AppModule&#45;&gt;AppComponent  -->
<g id="edge8" class="edge">
<title>AppModule&#45;&gt;AppComponent </title>
<path fill="none" stroke="black" stroke-dasharray="1,5" d="M765,-149.91C765,-149.91 765,-168.79 765,-168.79"/>
<polygon fill="black" stroke="black" points="761.5,-168.79 765,-178.79 768.5,-168.79 761.5,-168.79"/>
</g>
<!-- AuthGuardService -->
<g id="node10" class="node">
<title>AuthGuardService</title>
<ellipse fill="#fdb462" stroke="black" cx="385" cy="-66.8" rx="83.37" ry="18"/>
<text text-anchor="middle" x="385" y="-62.6" font-family="Times,serif" font-size="14.00">AuthGuardService</text>
</g>
<!-- AuthGuardService&#45;&gt;AppModule -->
<g id="edge9" class="edge">
<title>AuthGuardService&#45;&gt;AppModule</title>
<path fill="none" stroke="black" d="M385,-85.07C385,-103.36 385,-128.8 385,-128.8 385,-128.8 713.25,-128.8 713.25,-128.8"/>
<polygon fill="black" stroke="black" points="713.25,-132.3 723.25,-128.8 713.25,-125.3 713.25,-132.3"/>
</g>
<!-- NurseService -->
<g id="node11" class="node">
<title>NurseService</title>
<ellipse fill="#fdb462" stroke="black" cx="221" cy="-66.8" rx="63.1" ry="18"/>
<text text-anchor="middle" x="221" y="-62.6" font-family="Times,serif" font-size="14.00">NurseService</text>
</g>
<!-- NurseService&#45;&gt;AppModule -->
<g id="edge10" class="edge">
<title>NurseService&#45;&gt;AppModule</title>
<path fill="none" stroke="black" d="M221,-84.93C221,-105.37 221,-135.8 221,-135.8 221,-135.8 713.22,-135.8 713.22,-135.8"/>
<polygon fill="black" stroke="black" points="713.22,-139.3 723.22,-135.8 713.22,-132.3 713.22,-139.3"/>
</g>
<!-- UserService -->
<g id="node12" class="node">
<title>UserService</title>
<ellipse fill="#fdb462" stroke="black" cx="82" cy="-66.8" rx="58.44" ry="18"/>
<text text-anchor="middle" x="82" y="-62.6" font-family="Times,serif" font-size="14.00">UserService</text>
</g>
<!-- UserService&#45;&gt;AppModule -->
<g id="edge11" class="edge">
<title>UserService&#45;&gt;AppModule</title>
<path fill="none" stroke="black" d="M82,-84.81C82,-107.29 82,-142.8 82,-142.8 82,-142.8 713.3,-142.8 713.3,-142.8"/>
<polygon fill="black" stroke="black" points="713.3,-146.3 723.3,-142.8 713.3,-139.3 713.3,-146.3"/>
</g>
</g>
</svg>
