<?xml version="1.0" encoding="UTF-8" standalone="no"?>
<!DOCTYPE svg PUBLIC "-//W3C//DTD SVG 1.1//EN"
 "http://www.w3.org/Graphics/SVG/1.1/DTD/svg11.dtd">
<!-- Generated by graphviz version 2.47.3 (20210619.1520)
 -->
<!-- Title: dependencies Pages: 1 -->
<svg width="2251pt" height="247pt"
 viewBox="0.00 0.00 2251.00 246.80" xmlns="http://www.w3.org/2000/svg" xmlns:xlink="http://www.w3.org/1999/xlink">
<g id="graph0" class="graph" transform="scale(1 1) rotate(0) translate(4 242.8)">
<title>dependencies</title>
<polygon fill="white" stroke="transparent" points="-4,4 -4,-242.8 2247,-242.8 2247,4 -4,4"/>
<text text-anchor="middle" x="1121.5" y="-8.2" font-family="sans-serif" font-size="14.00">dependencies</text>
<g id="clust1" class="cluster">
<title>cluster_AppModule</title>
<polygon fill="none" stroke="black" stroke-dasharray="1,5" points="8,-32.8 8,-230.8 2235,-230.8 2235,-32.8 8,-32.8"/>
</g>
<g id="clust12" class="cluster">
<title>cluster_AppModule_bootstrap</title>
<polygon fill="none" stroke="black" points="1063,-170.8 1063,-222.8 1187,-222.8 1187,-170.8 1063,-170.8"/>
</g>
<g id="clust13" class="cluster">
<title>cluster_AppModule_providers</title>
<polygon fill="none" stroke="black" points="1767,-40.8 1767,-92.8 2227,-92.8 2227,-40.8 1767,-40.8"/>
</g>
<g id="clust10" class="cluster">
<title>cluster_AppModule_imports</title>
<polygon fill="none" stroke="black" points="1028,-40.8 1028,-92.8 1759,-92.8 1759,-40.8 1028,-40.8"/>
</g>
<g id="clust2" class="cluster">
<title>cluster_AppModule_declarations</title>
<polygon fill="none" stroke="black" points="16,-40.8 16,-92.8 1020,-92.8 1020,-40.8 16,-40.8"/>
</g>
<!-- AppComponent -->
<g id="node1" class="node">
<title>AppComponent</title>
<polygon fill="#ffffb3" stroke="black" points="1011.94,-84.8 906.06,-84.8 906.06,-48.8 1011.94,-48.8 1011.94,-84.8"/>
<text text-anchor="middle" x="959" y="-62.6" font-family="Times,serif" font-size="14.00">AppComponent</text>
</g>
<!-- AppModule -->
<g id="node8" class="node">
<title>AppModule</title>
<polygon fill="#8dd3c7" stroke="black" points="1166.66,-149.8 1163.66,-153.8 1142.66,-153.8 1139.66,-149.8 1083.34,-149.8 1083.34,-113.8 1166.66,-113.8 1166.66,-149.8"/>
<text text-anchor="middle" x="1125" y="-127.6" font-family="Times,serif" font-size="14.00">AppModule</text>
</g>
<!-- AppComponent&#45;&gt;AppModule -->
<g id="edge1" class="edge">
<title>AppComponent&#45;&gt;AppModule</title>
<path fill="none" stroke="black" d="M959,-84.99C959,-99.98 959,-118.8 959,-118.8 959,-118.8 1073.11,-118.8 1073.11,-118.8"/>
<polygon fill="black" stroke="black" points="1073.11,-122.3 1083.11,-118.8 1073.11,-115.3 1073.11,-122.3"/>
</g>
<!-- ModeDirective -->
<g id="node2" class="node">
<title>ModeDirective</title>
<polygon fill="#ffffb3" stroke="black" points="888.24,-84.8 787.76,-84.8 787.76,-48.8 888.24,-48.8 888.24,-84.8"/>
<text text-anchor="middle" x="838" y="-62.6" font-family="Times,serif" font-size="14.00">ModeDirective</text>
</g>
<!-- ModeDirective&#45;&gt;AppModule -->
<g id="edge2" class="edge">
<title>ModeDirective&#45;&gt;AppModule</title>
<path fill="none" stroke="black" d="M838,-84.83C838,-101.2 838,-122.8 838,-122.8 838,-122.8 1073.27,-122.8 1073.27,-122.8"/>
<polygon fill="black" stroke="black" points="1073.27,-126.3 1083.27,-122.8 1073.27,-119.3 1073.27,-126.3"/>
</g>
<!-- ProfilesComponent -->
<g id="node3" class="node">
<title>ProfilesComponent</title>
<polygon fill="#ffffb3" stroke="black" points="769.38,-84.8 644.62,-84.8 644.62,-48.8 769.38,-48.8 769.38,-84.8"/>
<text text-anchor="middle" x="707" y="-62.6" font-family="Times,serif" font-size="14.00">ProfilesComponent</text>
</g>
<!-- ProfilesComponent&#45;&gt;AppModule -->
<g id="edge3" class="edge">
<title>ProfilesComponent&#45;&gt;AppModule</title>
<path fill="none" stroke="black" d="M707,-85.1C707,-103.07 707,-127.8 707,-127.8 707,-127.8 1073.01,-127.8 1073.01,-127.8"/>
<polygon fill="black" stroke="black" points="1073.01,-131.3 1083.01,-127.8 1073.01,-124.3 1073.01,-131.3"/>
</g>
<!-- ChartsComponent -->
<g id="node4" class="node">
<title>ChartsComponent</title>
<polygon fill="#ffffb3" stroke="black" points="626.88,-84.8 509.12,-84.8 509.12,-48.8 626.88,-48.8 626.88,-84.8"/>
<text text-anchor="middle" x="568" y="-62.6" font-family="Times,serif" font-size="14.00">ChartsComponent</text>
</g>
<!-- ChartsComponent&#45;&gt;AppModule -->
<g id="edge4" class="edge">
<title>ChartsComponent&#45;&gt;AppModule</title>
<path fill="none" stroke="black" d="M568,-84.91C568,-104.14 568,-131.8 568,-131.8 568,-131.8 1073.13,-131.8 1073.13,-131.8"/>
<polygon fill="black" stroke="black" points="1073.13,-135.3 1083.13,-131.8 1073.13,-128.3 1073.13,-135.3"/>
</g>
<!-- LoginComponent -->
<g id="node5" class="node">
<title>LoginComponent</title>
<polygon fill="#ffffb3" stroke="black" points="491.28,-84.8 376.72,-84.8 376.72,-48.8 491.28,-48.8 491.28,-84.8"/>
<text text-anchor="middle" x="434" y="-62.6" font-family="Times,serif" font-size="14.00">LoginComponent</text>
</g>
<!-- LoginComponent&#45;&gt;AppModule -->
<g id="edge5" class="edge">
<title>LoginComponent&#45;&gt;AppModule</title>
<path fill="none" stroke="black" d="M434,-84.83C434,-105.57 434,-136.8 434,-136.8 434,-136.8 1073.33,-136.8 1073.33,-136.8"/>
<polygon fill="black" stroke="black" points="1073.33,-140.3 1083.33,-136.8 1073.33,-133.3 1073.33,-140.3"/>
</g>
<!-- DoctorCovidStatusComponent -->
<g id="node6" class="node">
<title>DoctorCovidStatusComponent</title>
<polygon fill="#ffffb3" stroke="black" points="358.16,-84.8 169.84,-84.8 169.84,-48.8 358.16,-48.8 358.16,-84.8"/>
<text text-anchor="middle" x="264" y="-62.6" font-family="Times,serif" font-size="14.00">DoctorCovidStatusComponent</text>
</g>
<!-- DoctorCovidStatusComponent&#45;&gt;AppModule -->
<g id="edge6" class="edge">
<title>DoctorCovidStatusComponent&#45;&gt;AppModule</title>
<path fill="none" stroke="black" d="M264,-85.09C264,-107.01 264,-140.8 264,-140.8 264,-140.8 1073.18,-140.8 1073.18,-140.8"/>
<polygon fill="black" stroke="black" points="1073.18,-144.3 1083.18,-140.8 1073.18,-137.3 1073.18,-144.3"/>
</g>
<!-- RegisterComponent -->
<g id="node7" class="node">
<title>RegisterComponent</title>
<polygon fill="#ffffb3" stroke="black" points="151.98,-84.8 24.02,-84.8 24.02,-48.8 151.98,-48.8 151.98,-84.8"/>
<text text-anchor="middle" x="88" y="-62.6" font-family="Times,serif" font-size="14.00">RegisterComponent</text>
</g>
<!-- RegisterComponent&#45;&gt;AppModule -->
<g id="edge7" class="edge">
<title>RegisterComponent&#45;&gt;AppModule</title>
<path fill="none" stroke="black" d="M88,-85.12C88,-108.46 88,-145.8 88,-145.8 88,-145.8 1073.06,-145.8 1073.06,-145.8"/>
<polygon fill="black" stroke="black" points="1073.06,-149.3 1083.06,-145.8 1073.06,-142.3 1073.06,-149.3"/>
</g>
<!-- AppComponent  -->
<g id="node14" class="node">
<title>AppComponent </title>
<polygon fill="#80b1d3" stroke="black" points="1179.44,-214.8 1070.56,-214.8 1070.56,-178.8 1179.44,-178.8 1179.44,-214.8"/>
<text text-anchor="middle" x="1125" y="-192.6" font-family="Times,serif" font-size="14.00">AppComponent </text>
</g>
<!-- AppModule&#45;&gt;AppComponent  -->
<g id="edge13" class="edge">
<title>AppModule&#45;&gt;AppComponent </title>
<path fill="none" stroke="black" stroke-dasharray="1,5" d="M1125,-149.91C1125,-149.91 1125,-168.79 1125,-168.79"/>
<polygon fill="black" stroke="black" points="1121.5,-168.79 1125,-178.79 1128.5,-168.79 1121.5,-168.79"/>
</g>
<!-- BrowserModule -->
<g id="node9" class="node">
<title>BrowserModule</title>
<polygon fill="#8dd3c7" stroke="black" points="1751.47,-84.8 1748.47,-88.8 1727.47,-88.8 1724.47,-84.8 1644.53,-84.8 1644.53,-48.8 1751.47,-48.8 1751.47,-84.8"/>
<text text-anchor="middle" x="1698" y="-62.6" font-family="Times,serif" font-size="14.00">BrowserModule</text>
</g>
<!-- BrowserModule&#45;&gt;AppModule -->
<g id="edge8" class="edge">
<title>BrowserModule&#45;&gt;AppModule</title>
<path fill="none" stroke="black" d="M1698,-84.91C1698,-104.14 1698,-131.8 1698,-131.8 1698,-131.8 1176.67,-131.8 1176.67,-131.8"/>
<polygon fill="black" stroke="black" points="1176.67,-128.3 1166.67,-131.8 1176.67,-135.3 1176.67,-128.3"/>
</g>
<!-- HttpClientModule -->
<g id="node10" class="node">
<title>HttpClientModule</title>
<polygon fill="#8dd3c7" stroke="black" points="1626.16,-84.8 1623.16,-88.8 1602.16,-88.8 1599.16,-84.8 1507.84,-84.8 1507.84,-48.8 1626.16,-48.8 1626.16,-84.8"/>
<text text-anchor="middle" x="1567" y="-62.6" font-family="Times,serif" font-size="14.00">HttpClientModule</text>
</g>
<!-- HttpClientModule&#45;&gt;AppModule -->
<g id="edge9" class="edge">
<title>HttpClientModule&#45;&gt;AppModule</title>
<path fill="none" stroke="black" d="M1567,-85.1C1567,-103.07 1567,-127.8 1567,-127.8 1567,-127.8 1176.98,-127.8 1176.98,-127.8"/>
<polygon fill="black" stroke="black" points="1176.98,-124.3 1166.98,-127.8 1176.98,-131.3 1176.98,-124.3"/>
</g>
<!-- FormsModule -->
<g id="node11" class="node">
<title>FormsModule</title>
<polygon fill="#8dd3c7" stroke="black" points="1489.83,-84.8 1486.83,-88.8 1465.83,-88.8 1462.83,-84.8 1394.17,-84.8 1394.17,-48.8 1489.83,-48.8 1489.83,-84.8"/>
<text text-anchor="middle" x="1442" y="-62.6" font-family="Times,serif" font-size="14.00">FormsModule</text>
</g>
<!-- FormsModule&#45;&gt;AppModule -->
<g id="edge10" class="edge">
<title>FormsModule&#45;&gt;AppModule</title>
<path fill="none" stroke="black" d="M1442,-84.83C1442,-101.2 1442,-122.8 1442,-122.8 1442,-122.8 1176.77,-122.8 1176.77,-122.8"/>
<polygon fill="black" stroke="black" points="1176.77,-119.3 1166.77,-122.8 1176.77,-126.3 1176.77,-119.3"/>
</g>
<!-- ReactiveFormsModule -->
<g id="node12" class="node">
<title>ReactiveFormsModule</title>
<polygon fill="#8dd3c7" stroke="black" points="1376.3,-84.8 1373.3,-88.8 1352.3,-88.8 1349.3,-84.8 1231.7,-84.8 1231.7,-48.8 1376.3,-48.8 1376.3,-84.8"/>
<text text-anchor="middle" x="1304" y="-62.6" font-family="Times,serif" font-size="14.00">ReactiveFormsModule</text>
</g>
<!-- ReactiveFormsModule&#45;&gt;AppModule -->
<g id="edge11" class="edge">
<title>ReactiveFormsModule&#45;&gt;AppModule</title>
<path fill="none" stroke="black" d="M1304,-84.99C1304,-99.98 1304,-118.8 1304,-118.8 1304,-118.8 1176.97,-118.8 1176.97,-118.8"/>
<polygon fill="black" stroke="black" points="1176.97,-115.3 1166.97,-118.8 1176.97,-122.3 1176.97,-115.3"/>
</g>
<!-- RouterModule.forRoot(args) -->
<g id="node13" class="node">
<title>RouterModule.forRoot(args)</title>
<polygon fill="#8dd3c7" stroke="black" points="1213.84,-84.8 1210.84,-88.8 1189.84,-88.8 1186.84,-84.8 1036.16,-84.8 1036.16,-48.8 1213.84,-48.8 1213.84,-84.8"/>
<text text-anchor="middle" x="1125" y="-62.6" font-family="Times,serif" font-size="14.00">RouterModule.forRoot(args)</text>
</g>
<!-- RouterModule.forRoot(args)&#45;&gt;AppModule -->
<g id="edge12" class="edge">
<title>RouterModule.forRoot(args)&#45;&gt;AppModule</title>
<path fill="none" stroke="black" d="M1125,-84.91C1125,-84.91 1125,-103.79 1125,-103.79"/>
<polygon fill="black" stroke="black" points="1121.5,-103.79 1125,-113.79 1128.5,-103.79 1121.5,-103.79"/>
</g>
<!-- UserService -->
<g id="node15" class="node">
<title>UserService</title>
<ellipse fill="#fdb462" stroke="black" cx="2161" cy="-66.8" rx="58.44" ry="18"/>
<text text-anchor="middle" x="2161" y="-62.6" font-family="Times,serif" font-size="14.00">UserService</text>
</g>
<!-- UserService&#45;&gt;AppModule -->
<g id="edge14" class="edge">
<title>UserService&#45;&gt;AppModule</title>
<path fill="none" stroke="black" d="M2161,-85.12C2161,-108.46 2161,-145.8 2161,-145.8 2161,-145.8 1176.9,-145.8 1176.9,-145.8"/>
<polygon fill="black" stroke="black" points="1176.9,-142.3 1166.9,-145.8 1176.9,-149.3 1176.9,-142.3"/>
</g>
<!-- NurseService -->
<g id="node16" class="node">
<title>NurseService</title>
<ellipse fill="#fdb462" stroke="black" cx="2022" cy="-66.8" rx="63.1" ry="18"/>
<text text-anchor="middle" x="2022" y="-62.6" font-family="Times,serif" font-size="14.00">NurseService</text>
</g>
<!-- NurseService&#45;&gt;AppModule -->
<g id="edge15" class="edge">
<title>NurseService&#45;&gt;AppModule</title>
<path fill="none" stroke="black" d="M2022,-85.09C2022,-107.01 2022,-140.8 2022,-140.8 2022,-140.8 1176.76,-140.8 1176.76,-140.8"/>
<polygon fill="black" stroke="black" points="1176.76,-137.3 1166.76,-140.8 1176.76,-144.3 1176.76,-137.3"/>
</g>
<!-- AuthGuardService -->
<g id="node17" class="node">
<title>AuthGuardService</title>
<ellipse fill="#fdb462" stroke="black" cx="1858" cy="-66.8" rx="83.37" ry="18"/>
<text text-anchor="middle" x="1858" y="-62.6" font-family="Times,serif" font-size="14.00">AuthGuardService</text>
</g>
<!-- AuthGuardService&#45;&gt;AppModule -->
<g id="edge16" class="edge">
<title>AuthGuardService&#45;&gt;AppModule</title>
<path fill="none" stroke="black" d="M1858,-84.83C1858,-105.57 1858,-136.8 1858,-136.8 1858,-136.8 1176.78,-136.8 1176.78,-136.8"/>
<polygon fill="black" stroke="black" points="1176.78,-133.3 1166.78,-136.8 1176.78,-140.3 1176.78,-133.3"/>
</g>
</g>
</svg>
