<?xml version="1.0" encoding="UTF-8" standalone="no"?>
<!DOCTYPE svg PUBLIC "-//W3C//DTD SVG 1.1//EN"
 "http://www.w3.org/Graphics/SVG/1.1/DTD/svg11.dtd">
<!-- Generated by graphviz version 2.47.3 (20210619.1520)
 -->
<!-- Title: dependencies Pages: 1 -->
<svg width="2503pt" height="247pt"
 viewBox="0.00 0.00 2503.00 246.80" xmlns="http://www.w3.org/2000/svg" xmlns:xlink="http://www.w3.org/1999/xlink">
<g id="graph0" class="graph" transform="scale(1 1) rotate(0) translate(4 242.8)">
<title>dependencies</title>
<polygon fill="white" stroke="transparent" points="-4,4 -4,-242.8 2499,-242.8 2499,4 -4,4"/>
<text text-anchor="middle" x="1247.5" y="-8.2" font-family="sans-serif" font-size="14.00">dependencies</text>
<g id="clust1" class="cluster">
<title>cluster_AppModule</title>
<polygon fill="none" stroke="black" stroke-dasharray="1,5" points="8,-32.8 8,-230.8 2487,-230.8 2487,-32.8 8,-32.8"/>
</g>
<g id="clust14" class="cluster">
<title>cluster_AppModule_bootstrap</title>
<polygon fill="none" stroke="black" points="1128,-170.8 1128,-222.8 1252,-222.8 1252,-170.8 1128,-170.8"/>
</g>
<g id="clust12" class="cluster">
<title>cluster_AppModule_imports</title>
<polygon fill="none" stroke="black" points="1647,-40.8 1647,-92.8 2479,-92.8 2479,-40.8 1647,-40.8"/>
</g>
<g id="clust15" class="cluster">
<title>cluster_AppModule_providers</title>
<polygon fill="none" stroke="black" points="1179,-40.8 1179,-92.8 1639,-92.8 1639,-40.8 1179,-40.8"/>
</g>
<g id="clust2" class="cluster">
<title>cluster_AppModule_declarations</title>
<polygon fill="none" stroke="black" points="16,-40.8 16,-92.8 1171,-92.8 1171,-40.8 16,-40.8"/>
</g>
<!-- AppComponent -->
<g id="node1" class="node">
<title>AppComponent</title>
<polygon fill="#ffffb3" stroke="black" points="1162.94,-84.8 1057.06,-84.8 1057.06,-48.8 1162.94,-48.8 1162.94,-84.8"/>
<text text-anchor="middle" x="1110" y="-62.6" font-family="Times,serif" font-size="14.00">AppComponent</text>
</g>
<!-- AppModule -->
<g id="node10" class="node">
<title>AppModule</title>
<polygon fill="#8dd3c7" stroke="black" points="1231.66,-149.8 1228.66,-153.8 1207.66,-153.8 1204.66,-149.8 1148.34,-149.8 1148.34,-113.8 1231.66,-113.8 1231.66,-149.8"/>
<text text-anchor="middle" x="1190" y="-127.6" font-family="Times,serif" font-size="14.00">AppModule</text>
</g>
<!-- AppComponent&#45;&gt;AppModule -->
<g id="edge1" class="edge">
<title>AppComponent&#45;&gt;AppModule</title>
<path fill="none" stroke="black" d="M1155.45,-84.91C1155.45,-84.91 1155.45,-103.79 1155.45,-103.79"/>
<polygon fill="black" stroke="black" points="1151.95,-103.79 1155.45,-113.79 1158.95,-103.79 1151.95,-103.79"/>
</g>
<!-- ModeDirective -->
<g id="node2" class="node">
<title>ModeDirective</title>
<polygon fill="#ffffb3" stroke="black" points="1039.24,-84.8 938.76,-84.8 938.76,-48.8 1039.24,-48.8 1039.24,-84.8"/>
<text text-anchor="middle" x="989" y="-62.6" font-family="Times,serif" font-size="14.00">ModeDirective</text>
</g>
<!-- ModeDirective&#45;&gt;AppModule -->
<g id="edge2" class="edge">
<title>ModeDirective&#45;&gt;AppModule</title>
<path fill="none" stroke="black" d="M989,-84.92C989,-99.58 989,-117.8 989,-117.8 989,-117.8 1137.86,-117.8 1137.86,-117.8"/>
<polygon fill="black" stroke="black" points="1137.86,-121.3 1147.86,-117.8 1137.86,-114.3 1137.86,-121.3"/>
</g>
<!-- ProfilesComponent -->
<g id="node3" class="node">
<title>ProfilesComponent</title>
<polygon fill="#ffffb3" stroke="black" points="920.38,-84.8 795.62,-84.8 795.62,-48.8 920.38,-48.8 920.38,-84.8"/>
<text text-anchor="middle" x="858" y="-62.6" font-family="Times,serif" font-size="14.00">ProfilesComponent</text>
</g>
<!-- ProfilesComponent&#45;&gt;AppModule -->
<g id="edge3" class="edge">
<title>ProfilesComponent&#45;&gt;AppModule</title>
<path fill="none" stroke="black" d="M858,-84.81C858,-100.85 858,-121.8 858,-121.8 858,-121.8 1138.29,-121.8 1138.29,-121.8"/>
<polygon fill="black" stroke="black" points="1138.29,-125.3 1148.29,-121.8 1138.29,-118.3 1138.29,-125.3"/>
</g>
<!-- ChartsComponent -->
<g id="node4" class="node">
<title>ChartsComponent</title>
<polygon fill="#ffffb3" stroke="black" points="777.88,-84.8 660.12,-84.8 660.12,-48.8 777.88,-48.8 777.88,-84.8"/>
<text text-anchor="middle" x="719" y="-62.6" font-family="Times,serif" font-size="14.00">ChartsComponent</text>
</g>
<!-- ChartsComponent&#45;&gt;AppModule -->
<g id="edge4" class="edge">
<title>ChartsComponent&#45;&gt;AppModule</title>
<path fill="none" stroke="black" d="M719,-84.82C719,-102.17 719,-125.8 719,-125.8 719,-125.8 1138.2,-125.8 1138.2,-125.8"/>
<polygon fill="black" stroke="black" points="1138.2,-129.3 1148.2,-125.8 1138.2,-122.3 1138.2,-129.3"/>
</g>
<!-- LoginComponent -->
<g id="node5" class="node">
<title>LoginComponent</title>
<polygon fill="#ffffb3" stroke="black" points="642.28,-84.8 527.72,-84.8 527.72,-48.8 642.28,-48.8 642.28,-84.8"/>
<text text-anchor="middle" x="585" y="-62.6" font-family="Times,serif" font-size="14.00">LoginComponent</text>
</g>
<!-- LoginComponent&#45;&gt;AppModule -->
<g id="edge5" class="edge">
<title>LoginComponent&#45;&gt;AppModule</title>
<path fill="none" stroke="black" d="M585,-85.02C585,-103.63 585,-129.8 585,-129.8 585,-129.8 1137.94,-129.8 1137.94,-129.8"/>
<polygon fill="black" stroke="black" points="1137.94,-133.3 1147.94,-129.8 1137.94,-126.3 1137.94,-133.3"/>
</g>
<!-- Survey -->
<g id="node6" class="node">
<title>Survey</title>
<polygon fill="#ffffb3" stroke="black" points="509.66,-84.8 454.34,-84.8 454.34,-48.8 509.66,-48.8 509.66,-84.8"/>
<text text-anchor="middle" x="482" y="-62.6" font-family="Times,serif" font-size="14.00">Survey</text>
</g>
<!-- Survey&#45;&gt;AppModule -->
<g id="edge6" class="edge">
<title>Survey&#45;&gt;AppModule</title>
<path fill="none" stroke="black" d="M482,-85.11C482,-104.95 482,-133.8 482,-133.8 482,-133.8 1138.09,-133.8 1138.09,-133.8"/>
<polygon fill="black" stroke="black" points="1138.09,-137.3 1148.09,-133.8 1138.09,-130.3 1138.09,-137.3"/>
</g>
<!-- RegisterComponent -->
<g id="node7" class="node">
<title>RegisterComponent</title>
<polygon fill="#ffffb3" stroke="black" points="435.98,-84.8 308.02,-84.8 308.02,-48.8 435.98,-48.8 435.98,-84.8"/>
<text text-anchor="middle" x="372" y="-62.6" font-family="Times,serif" font-size="14.00">RegisterComponent</text>
</g>
<!-- RegisterComponent&#45;&gt;AppModule -->
<g id="edge7" class="edge">
<title>RegisterComponent&#45;&gt;AppModule</title>
<path fill="none" stroke="black" d="M372,-85.08C372,-106.12 372,-137.8 372,-137.8 372,-137.8 1138.31,-137.8 1138.31,-137.8"/>
<polygon fill="black" stroke="black" points="1138.31,-141.3 1148.31,-137.8 1138.31,-134.3 1138.31,-141.3"/>
</g>
<!-- AccountComponent -->
<g id="node8" class="node">
<title>AccountComponent</title>
<polygon fill="#ffffb3" stroke="black" points="290.26,-84.8 161.74,-84.8 161.74,-48.8 290.26,-48.8 290.26,-84.8"/>
<text text-anchor="middle" x="226" y="-62.6" font-family="Times,serif" font-size="14.00">AccountComponent</text>
</g>
<!-- AccountComponent&#45;&gt;AppModule -->
<g id="edge8" class="edge">
<title>AccountComponent&#45;&gt;AppModule</title>
<path fill="none" stroke="black" d="M226,-84.96C226,-107.15 226,-141.8 226,-141.8 226,-141.8 1138.27,-141.8 1138.27,-141.8"/>
<polygon fill="black" stroke="black" points="1138.27,-145.3 1148.27,-141.8 1138.27,-138.3 1138.27,-145.3"/>
</g>
<!-- AdminComponent -->
<g id="node9" class="node">
<title>AdminComponent</title>
<polygon fill="#ffffb3" stroke="black" points="144.22,-84.8 23.78,-84.8 23.78,-48.8 144.22,-48.8 144.22,-84.8"/>
<text text-anchor="middle" x="84" y="-62.6" font-family="Times,serif" font-size="14.00">AdminComponent</text>
</g>
<!-- AdminComponent&#45;&gt;AppModule -->
<g id="edge9" class="edge">
<title>AdminComponent&#45;&gt;AppModule</title>
<path fill="none" stroke="black" d="M84,-85.12C84,-108.46 84,-145.8 84,-145.8 84,-145.8 1138.33,-145.8 1138.33,-145.8"/>
<polygon fill="black" stroke="black" points="1138.33,-149.3 1148.33,-145.8 1138.33,-142.3 1138.33,-149.3"/>
</g>
<!-- AppComponent  -->
<g id="node17" class="node">
<title>AppComponent </title>
<polygon fill="#80b1d3" stroke="black" points="1244.44,-214.8 1135.56,-214.8 1135.56,-178.8 1244.44,-178.8 1244.44,-214.8"/>
<text text-anchor="middle" x="1190" y="-192.6" font-family="Times,serif" font-size="14.00">AppComponent </text>
</g>
<!-- AppModule&#45;&gt;AppComponent  -->
<g id="edge16" class="edge">
<title>AppModule&#45;&gt;AppComponent </title>
<path fill="none" stroke="black" stroke-dasharray="1,5" d="M1190,-149.91C1190,-149.91 1190,-168.79 1190,-168.79"/>
<polygon fill="black" stroke="black" points="1186.5,-168.79 1190,-178.79 1193.5,-168.79 1186.5,-168.79"/>
</g>
<!-- BrowserModule -->
<g id="node11" class="node">
<title>BrowserModule</title>
<polygon fill="#8dd3c7" stroke="black" points="2471.47,-84.8 2468.47,-88.8 2447.47,-88.8 2444.47,-84.8 2364.53,-84.8 2364.53,-48.8 2471.47,-48.8 2471.47,-84.8"/>
<text text-anchor="middle" x="2418" y="-62.6" font-family="Times,serif" font-size="14.00">BrowserModule</text>
</g>
<!-- BrowserModule&#45;&gt;AppModule -->
<g id="edge10" class="edge">
<title>BrowserModule&#45;&gt;AppModule</title>
<path fill="none" stroke="black" d="M2418,-85.12C2418,-108.46 2418,-145.8 2418,-145.8 2418,-145.8 1241.92,-145.8 1241.92,-145.8"/>
<polygon fill="black" stroke="black" points="1241.92,-142.3 1231.92,-145.8 1241.92,-149.3 1241.92,-142.3"/>
</g>
<!-- HttpClientModule -->
<g id="node12" class="node">
<title>HttpClientModule</title>
<polygon fill="#8dd3c7" stroke="black" points="2346.16,-84.8 2343.16,-88.8 2322.16,-88.8 2319.16,-84.8 2227.84,-84.8 2227.84,-48.8 2346.16,-48.8 2346.16,-84.8"/>
<text text-anchor="middle" x="2287" y="-62.6" font-family="Times,serif" font-size="14.00">HttpClientModule</text>
</g>
<!-- HttpClientModule&#45;&gt;AppModule -->
<g id="edge11" class="edge">
<title>HttpClientModule&#45;&gt;AppModule</title>
<path fill="none" stroke="black" d="M2287,-84.96C2287,-107.15 2287,-141.8 2287,-141.8 2287,-141.8 1241.66,-141.8 1241.66,-141.8"/>
<polygon fill="black" stroke="black" points="1241.66,-138.3 1231.66,-141.8 1241.66,-145.3 1241.66,-138.3"/>
</g>
<!-- FormsModule -->
<g id="node13" class="node">
<title>FormsModule</title>
<polygon fill="#8dd3c7" stroke="black" points="2209.83,-84.8 2206.83,-88.8 2185.83,-88.8 2182.83,-84.8 2114.17,-84.8 2114.17,-48.8 2209.83,-48.8 2209.83,-84.8"/>
<text text-anchor="middle" x="2162" y="-62.6" font-family="Times,serif" font-size="14.00">FormsModule</text>
</g>
<!-- FormsModule&#45;&gt;AppModule -->
<g id="edge12" class="edge">
<title>FormsModule&#45;&gt;AppModule</title>
<path fill="none" stroke="black" d="M2162,-85.08C2162,-106.12 2162,-137.8 2162,-137.8 2162,-137.8 1241.77,-137.8 1241.77,-137.8"/>
<polygon fill="black" stroke="black" points="1241.77,-134.3 1231.77,-137.8 1241.77,-141.3 1241.77,-134.3"/>
</g>
<!-- ReactiveFormsModule -->
<g id="node14" class="node">
<title>ReactiveFormsModule</title>
<polygon fill="#8dd3c7" stroke="black" points="2096.3,-84.8 2093.3,-88.8 2072.3,-88.8 2069.3,-84.8 1951.7,-84.8 1951.7,-48.8 2096.3,-48.8 2096.3,-84.8"/>
<text text-anchor="middle" x="2024" y="-62.6" font-family="Times,serif" font-size="14.00">ReactiveFormsModule</text>
</g>
<!-- ReactiveFormsModule&#45;&gt;AppModule -->
<g id="edge13" class="edge">
<title>ReactiveFormsModule&#45;&gt;AppModule</title>
<path fill="none" stroke="black" d="M2024,-85.11C2024,-104.95 2024,-133.8 2024,-133.8 2024,-133.8 1241.93,-133.8 1241.93,-133.8"/>
<polygon fill="black" stroke="black" points="1241.93,-130.3 1231.93,-133.8 1241.93,-137.3 1241.93,-130.3"/>
</g>
<!-- NgbModule -->
<g id="node15" class="node">
<title>NgbModule</title>
<polygon fill="#8dd3c7" stroke="black" points="1933.66,-84.8 1930.66,-88.8 1909.66,-88.8 1906.66,-84.8 1850.34,-84.8 1850.34,-48.8 1933.66,-48.8 1933.66,-84.8"/>
<text text-anchor="middle" x="1892" y="-62.6" font-family="Times,serif" font-size="14.00">NgbModule</text>
</g>
<!-- NgbModule&#45;&gt;AppModule -->
<g id="edge14" class="edge">
<title>NgbModule&#45;&gt;AppModule</title>
<path fill="none" stroke="black" d="M1892,-85.02C1892,-103.63 1892,-129.8 1892,-129.8 1892,-129.8 1241.81,-129.8 1241.81,-129.8"/>
<polygon fill="black" stroke="black" points="1241.81,-126.3 1231.81,-129.8 1241.81,-133.3 1241.81,-126.3"/>
</g>
<!-- RouterModule.forRoot(args) -->
<g id="node16" class="node">
<title>RouterModule.forRoot(args)</title>
<polygon fill="#8dd3c7" stroke="black" points="1832.84,-84.8 1829.84,-88.8 1808.84,-88.8 1805.84,-84.8 1655.16,-84.8 1655.16,-48.8 1832.84,-48.8 1832.84,-84.8"/>
<text text-anchor="middle" x="1744" y="-62.6" font-family="Times,serif" font-size="14.00">RouterModule.forRoot(args)</text>
</g>
<!-- RouterModule.forRoot(args)&#45;&gt;AppModule -->
<g id="edge15" class="edge">
<title>RouterModule.forRoot(args)&#45;&gt;AppModule</title>
<path fill="none" stroke="black" d="M1744,-84.82C1744,-102.17 1744,-125.8 1744,-125.8 1744,-125.8 1242.09,-125.8 1242.09,-125.8"/>
<polygon fill="black" stroke="black" points="1242.09,-122.3 1232.09,-125.8 1242.09,-129.3 1242.09,-122.3"/>
</g>
<!-- UserService -->
<g id="node18" class="node">
<title>UserService</title>
<ellipse fill="#fdb462" stroke="black" cx="1573" cy="-66.8" rx="58.44" ry="18"/>
<text text-anchor="middle" x="1573" y="-62.6" font-family="Times,serif" font-size="14.00">UserService</text>
</g>
<!-- UserService&#45;&gt;AppModule -->
<g id="edge17" class="edge">
<title>UserService&#45;&gt;AppModule</title>
<path fill="none" stroke="black" d="M1573,-84.81C1573,-100.85 1573,-121.8 1573,-121.8 1573,-121.8 1241.72,-121.8 1241.72,-121.8"/>
<polygon fill="black" stroke="black" points="1241.72,-118.3 1231.72,-121.8 1241.72,-125.3 1241.72,-118.3"/>
</g>
<!-- NurseService -->
<g id="node19" class="node">
<title>NurseService</title>
<ellipse fill="#fdb462" stroke="black" cx="1434" cy="-66.8" rx="63.1" ry="18"/>
<text text-anchor="middle" x="1434" y="-62.6" font-family="Times,serif" font-size="14.00">NurseService</text>
</g>
<!-- NurseService&#45;&gt;AppModule -->
<g id="edge18" class="edge">
<title>NurseService&#45;&gt;AppModule</title>
<path fill="none" stroke="black" d="M1434,-84.92C1434,-99.58 1434,-117.8 1434,-117.8 1434,-117.8 1241.67,-117.8 1241.67,-117.8"/>
<polygon fill="black" stroke="black" points="1241.67,-114.3 1231.67,-117.8 1241.67,-121.3 1241.67,-114.3"/>
</g>
<!-- AuthGuardService -->
<g id="node20" class="node">
<title>AuthGuardService</title>
<ellipse fill="#fdb462" stroke="black" cx="1270" cy="-66.8" rx="83.37" ry="18"/>
<text text-anchor="middle" x="1270" y="-62.6" font-family="Times,serif" font-size="14.00">AuthGuardService</text>
</g>
<!-- AuthGuardService&#45;&gt;AppModule -->
<g id="edge19" class="edge">
<title>AuthGuardService&#45;&gt;AppModule</title>
<path fill="none" stroke="black" d="M1209.2,-79.33C1209.2,-79.33 1209.2,-103.65 1209.2,-103.65"/>
<polygon fill="black" stroke="black" points="1205.7,-103.65 1209.2,-113.65 1212.7,-103.65 1205.7,-103.65"/>
</g>
</g>
</svg>
