<?xml version="1.0" encoding="UTF-8" standalone="no"?>
<!DOCTYPE svg PUBLIC "-//W3C//DTD SVG 1.1//EN"
 "http://www.w3.org/Graphics/SVG/1.1/DTD/svg11.dtd">
<!-- Generated by graphviz version 2.47.3 (20210619.1520)
 -->
<!-- Title: dependencies Pages: 1 -->
<svg width="2503pt" height="247pt"
 viewBox="0.00 0.00 2503.00 246.80" xmlns="http://www.w3.org/2000/svg" xmlns:xlink="http://www.w3.org/1999/xlink">
<g id="graph0" class="graph" transform="scale(1 1) rotate(0) translate(4 242.8)">
<title>dependencies</title>
<polygon fill="white" stroke="transparent" points="-4,4 -4,-242.8 2499,-242.8 2499,4 -4,4"/>
<text text-anchor="middle" x="1247.5" y="-8.2" font-family="sans-serif" font-size="14.00">dependencies</text>
<g id="clust1" class="cluster">
<title>cluster_AppModule</title>
<polygon fill="none" stroke="black" stroke-dasharray="1,5" points="8,-32.8 8,-230.8 2487,-230.8 2487,-32.8 8,-32.8"/>
</g>
<g id="clust2" class="cluster">
<title>cluster_AppModule_declarations</title>
<polygon fill="none" stroke="black" points="1324,-40.8 1324,-92.8 2479,-92.8 2479,-40.8 1324,-40.8"/>
</g>
<g id="clust12" class="cluster">
<title>cluster_AppModule_imports</title>
<polygon fill="none" stroke="black" points="484,-40.8 484,-92.8 1316,-92.8 1316,-40.8 484,-40.8"/>
</g>
<g id="clust14" class="cluster">
<title>cluster_AppModule_bootstrap</title>
<polygon fill="none" stroke="black" points="1261,-170.8 1261,-222.8 1385,-222.8 1385,-170.8 1261,-170.8"/>
</g>
<g id="clust15" class="cluster">
<title>cluster_AppModule_providers</title>
<polygon fill="none" stroke="black" points="16,-40.8 16,-92.8 476,-92.8 476,-40.8 16,-40.8"/>
</g>
<!-- AppComponent -->
<g id="node1" class="node">
<title>AppComponent</title>
<polygon fill="#ffffb3" stroke="black" points="2470.94,-84.8 2365.06,-84.8 2365.06,-48.8 2470.94,-48.8 2470.94,-84.8"/>
<text text-anchor="middle" x="2418" y="-62.6" font-family="Times,serif" font-size="14.00">AppComponent</text>
</g>
<!-- AppModule -->
<g id="node10" class="node">
<title>AppModule</title>
<polygon fill="#8dd3c7" stroke="black" points="1364.66,-149.8 1361.66,-153.8 1340.66,-153.8 1337.66,-149.8 1281.34,-149.8 1281.34,-113.8 1364.66,-113.8 1364.66,-149.8"/>
<text text-anchor="middle" x="1323" y="-127.6" font-family="Times,serif" font-size="14.00">AppModule</text>
</g>
<!-- AppComponent&#45;&gt;AppModule -->
<g id="edge1" class="edge">
<title>AppComponent&#45;&gt;AppModule</title>
<path fill="none" stroke="black" d="M2418,-85.12C2418,-108.46 2418,-145.8 2418,-145.8 2418,-145.8 1374.92,-145.8 1374.92,-145.8"/>
<polygon fill="black" stroke="black" points="1374.92,-142.3 1364.92,-145.8 1374.92,-149.3 1374.92,-142.3"/>
</g>
<!-- ModeDirective -->
<g id="node2" class="node">
<title>ModeDirective</title>
<polygon fill="#ffffb3" stroke="black" points="2347.24,-84.8 2246.76,-84.8 2246.76,-48.8 2347.24,-48.8 2347.24,-84.8"/>
<text text-anchor="middle" x="2297" y="-62.6" font-family="Times,serif" font-size="14.00">ModeDirective</text>
</g>
<!-- ModeDirective&#45;&gt;AppModule -->
<g id="edge2" class="edge">
<title>ModeDirective&#45;&gt;AppModule</title>
<path fill="none" stroke="black" d="M2297,-84.96C2297,-107.15 2297,-141.8 2297,-141.8 2297,-141.8 1374.85,-141.8 1374.85,-141.8"/>
<polygon fill="black" stroke="black" points="1374.85,-138.3 1364.85,-141.8 1374.85,-145.3 1374.85,-138.3"/>
</g>
<!-- ProfilesComponent -->
<g id="node3" class="node">
<title>ProfilesComponent</title>
<polygon fill="#ffffb3" stroke="black" points="2228.38,-84.8 2103.62,-84.8 2103.62,-48.8 2228.38,-48.8 2228.38,-84.8"/>
<text text-anchor="middle" x="2166" y="-62.6" font-family="Times,serif" font-size="14.00">ProfilesComponent</text>
</g>
<!-- ProfilesComponent&#45;&gt;AppModule -->
<g id="edge3" class="edge">
<title>ProfilesComponent&#45;&gt;AppModule</title>
<path fill="none" stroke="black" d="M2166,-85.08C2166,-106.12 2166,-137.8 2166,-137.8 2166,-137.8 1374.8,-137.8 1374.8,-137.8"/>
<polygon fill="black" stroke="black" points="1374.8,-134.3 1364.8,-137.8 1374.8,-141.3 1374.8,-134.3"/>
</g>
<!-- ChartsComponent -->
<g id="node4" class="node">
<title>ChartsComponent</title>
<polygon fill="#ffffb3" stroke="black" points="2085.88,-84.8 1968.12,-84.8 1968.12,-48.8 2085.88,-48.8 2085.88,-84.8"/>
<text text-anchor="middle" x="2027" y="-62.6" font-family="Times,serif" font-size="14.00">ChartsComponent</text>
</g>
<!-- ChartsComponent&#45;&gt;AppModule -->
<g id="edge4" class="edge">
<title>ChartsComponent&#45;&gt;AppModule</title>
<path fill="none" stroke="black" d="M2027,-85.11C2027,-104.95 2027,-133.8 2027,-133.8 2027,-133.8 1374.67,-133.8 1374.67,-133.8"/>
<polygon fill="black" stroke="black" points="1374.67,-130.3 1364.67,-133.8 1374.67,-137.3 1374.67,-130.3"/>
</g>
<!-- LoginComponent -->
<g id="node5" class="node">
<title>LoginComponent</title>
<polygon fill="#ffffb3" stroke="black" points="1950.28,-84.8 1835.72,-84.8 1835.72,-48.8 1950.28,-48.8 1950.28,-84.8"/>
<text text-anchor="middle" x="1893" y="-62.6" font-family="Times,serif" font-size="14.00">LoginComponent</text>
</g>
<!-- LoginComponent&#45;&gt;AppModule -->
<g id="edge5" class="edge">
<title>LoginComponent&#45;&gt;AppModule</title>
<path fill="none" stroke="black" d="M1893,-85.02C1893,-103.63 1893,-129.8 1893,-129.8 1893,-129.8 1374.91,-129.8 1374.91,-129.8"/>
<polygon fill="black" stroke="black" points="1374.91,-126.3 1364.91,-129.8 1374.91,-133.3 1374.91,-126.3"/>
</g>
<!-- Survey -->
<g id="node6" class="node">
<title>Survey</title>
<polygon fill="#ffffb3" stroke="black" points="1817.66,-84.8 1762.34,-84.8 1762.34,-48.8 1817.66,-48.8 1817.66,-84.8"/>
<text text-anchor="middle" x="1790" y="-62.6" font-family="Times,serif" font-size="14.00">Survey</text>
</g>
<!-- Survey&#45;&gt;AppModule -->
<g id="edge6" class="edge">
<title>Survey&#45;&gt;AppModule</title>
<path fill="none" stroke="black" d="M1790,-84.82C1790,-102.17 1790,-125.8 1790,-125.8 1790,-125.8 1374.85,-125.8 1374.85,-125.8"/>
<polygon fill="black" stroke="black" points="1374.85,-122.3 1364.85,-125.8 1374.85,-129.3 1374.85,-122.3"/>
</g>
<!-- RegisterComponent -->
<g id="node7" class="node">
<title>RegisterComponent</title>
<polygon fill="#ffffb3" stroke="black" points="1743.98,-84.8 1616.02,-84.8 1616.02,-48.8 1743.98,-48.8 1743.98,-84.8"/>
<text text-anchor="middle" x="1680" y="-62.6" font-family="Times,serif" font-size="14.00">RegisterComponent</text>
</g>
<!-- RegisterComponent&#45;&gt;AppModule -->
<g id="edge7" class="edge">
<title>RegisterComponent&#45;&gt;AppModule</title>
<path fill="none" stroke="black" d="M1680,-84.81C1680,-100.85 1680,-121.8 1680,-121.8 1680,-121.8 1375,-121.8 1375,-121.8"/>
<polygon fill="black" stroke="black" points="1375,-118.3 1365,-121.8 1375,-125.3 1375,-118.3"/>
</g>
<!-- AccountComponent -->
<g id="node8" class="node">
<title>AccountComponent</title>
<polygon fill="#ffffb3" stroke="black" points="1598.26,-84.8 1469.74,-84.8 1469.74,-48.8 1598.26,-48.8 1598.26,-84.8"/>
<text text-anchor="middle" x="1534" y="-62.6" font-family="Times,serif" font-size="14.00">AccountComponent</text>
</g>
<!-- AccountComponent&#45;&gt;AppModule -->
<g id="edge8" class="edge">
<title>AccountComponent&#45;&gt;AppModule</title>
<path fill="none" stroke="black" d="M1534,-84.92C1534,-99.58 1534,-117.8 1534,-117.8 1534,-117.8 1374.69,-117.8 1374.69,-117.8"/>
<polygon fill="black" stroke="black" points="1374.69,-114.3 1364.69,-117.8 1374.69,-121.3 1374.69,-114.3"/>
</g>
<!-- AdminComponent -->
<g id="node9" class="node">
<title>AdminComponent</title>
<polygon fill="#ffffb3" stroke="black" points="1452.22,-84.8 1331.78,-84.8 1331.78,-48.8 1452.22,-48.8 1452.22,-84.8"/>
<text text-anchor="middle" x="1392" y="-62.6" font-family="Times,serif" font-size="14.00">AdminComponent</text>
</g>
<!-- AdminComponent&#45;&gt;AppModule -->
<g id="edge9" class="edge">
<title>AdminComponent&#45;&gt;AppModule</title>
<path fill="none" stroke="black" d="M1348.36,-84.91C1348.36,-84.91 1348.36,-103.79 1348.36,-103.79"/>
<polygon fill="black" stroke="black" points="1344.86,-103.79 1348.36,-113.79 1351.86,-103.79 1344.86,-103.79"/>
</g>
<!-- AppComponent  -->
<g id="node17" class="node">
<title>AppComponent </title>
<polygon fill="#80b1d3" stroke="black" points="1377.44,-214.8 1268.56,-214.8 1268.56,-178.8 1377.44,-178.8 1377.44,-214.8"/>
<text text-anchor="middle" x="1323" y="-192.6" font-family="Times,serif" font-size="14.00">AppComponent </text>
</g>
<!-- AppModule&#45;&gt;AppComponent  -->
<g id="edge16" class="edge">
<title>AppModule&#45;&gt;AppComponent </title>
<path fill="none" stroke="black" stroke-dasharray="1,5" d="M1323,-149.91C1323,-149.91 1323,-168.79 1323,-168.79"/>
<polygon fill="black" stroke="black" points="1319.5,-168.79 1323,-178.79 1326.5,-168.79 1319.5,-168.79"/>
</g>
<!-- BrowserModule -->
<g id="node11" class="node">
<title>BrowserModule</title>
<polygon fill="#8dd3c7" stroke="black" points="1308.47,-84.8 1305.47,-88.8 1284.47,-88.8 1281.47,-84.8 1201.53,-84.8 1201.53,-48.8 1308.47,-48.8 1308.47,-84.8"/>
<text text-anchor="middle" x="1255" y="-62.6" font-family="Times,serif" font-size="14.00">BrowserModule</text>
</g>
<!-- BrowserModule&#45;&gt;AppModule -->
<g id="edge10" class="edge">
<title>BrowserModule&#45;&gt;AppModule</title>
<path fill="none" stroke="black" d="M1294.83,-84.91C1294.83,-84.91 1294.83,-103.79 1294.83,-103.79"/>
<polygon fill="black" stroke="black" points="1291.33,-103.79 1294.83,-113.79 1298.33,-103.79 1291.33,-103.79"/>
</g>
<!-- HttpClientModule -->
<g id="node12" class="node">
<title>HttpClientModule</title>
<polygon fill="#8dd3c7" stroke="black" points="1183.16,-84.8 1180.16,-88.8 1159.16,-88.8 1156.16,-84.8 1064.84,-84.8 1064.84,-48.8 1183.16,-48.8 1183.16,-84.8"/>
<text text-anchor="middle" x="1124" y="-62.6" font-family="Times,serif" font-size="14.00">HttpClientModule</text>
</g>
<!-- HttpClientModule&#45;&gt;AppModule -->
<g id="edge11" class="edge">
<title>HttpClientModule&#45;&gt;AppModule</title>
<path fill="none" stroke="black" d="M1124,-84.92C1124,-99.58 1124,-117.8 1124,-117.8 1124,-117.8 1271.28,-117.8 1271.28,-117.8"/>
<polygon fill="black" stroke="black" points="1271.28,-121.3 1281.28,-117.8 1271.28,-114.3 1271.28,-121.3"/>
</g>
<!-- FormsModule -->
<g id="node13" class="node">
<title>FormsModule</title>
<polygon fill="#8dd3c7" stroke="black" points="1046.83,-84.8 1043.83,-88.8 1022.83,-88.8 1019.83,-84.8 951.17,-84.8 951.17,-48.8 1046.83,-48.8 1046.83,-84.8"/>
<text text-anchor="middle" x="999" y="-62.6" font-family="Times,serif" font-size="14.00">FormsModule</text>
</g>
<!-- FormsModule&#45;&gt;AppModule -->
<g id="edge12" class="edge">
<title>FormsModule&#45;&gt;AppModule</title>
<path fill="none" stroke="black" d="M999,-84.81C999,-100.85 999,-121.8 999,-121.8 999,-121.8 1271.31,-121.8 1271.31,-121.8"/>
<polygon fill="black" stroke="black" points="1271.31,-125.3 1281.31,-121.8 1271.31,-118.3 1271.31,-125.3"/>
</g>
<!-- ReactiveFormsModule -->
<g id="node14" class="node">
<title>ReactiveFormsModule</title>
<polygon fill="#8dd3c7" stroke="black" points="933.3,-84.8 930.3,-88.8 909.3,-88.8 906.3,-84.8 788.7,-84.8 788.7,-48.8 933.3,-48.8 933.3,-84.8"/>
<text text-anchor="middle" x="861" y="-62.6" font-family="Times,serif" font-size="14.00">ReactiveFormsModule</text>
</g>
<!-- ReactiveFormsModule&#45;&gt;AppModule -->
<g id="edge13" class="edge">
<title>ReactiveFormsModule&#45;&gt;AppModule</title>
<path fill="none" stroke="black" d="M861,-84.82C861,-102.17 861,-125.8 861,-125.8 861,-125.8 1271.19,-125.8 1271.19,-125.8"/>
<polygon fill="black" stroke="black" points="1271.19,-129.3 1281.19,-125.8 1271.19,-122.3 1271.19,-129.3"/>
</g>
<!-- NgbModule -->
<g id="node15" class="node">
<title>NgbModule</title>
<polygon fill="#8dd3c7" stroke="black" points="770.66,-84.8 767.66,-88.8 746.66,-88.8 743.66,-84.8 687.34,-84.8 687.34,-48.8 770.66,-48.8 770.66,-84.8"/>
<text text-anchor="middle" x="729" y="-62.6" font-family="Times,serif" font-size="14.00">NgbModule</text>
</g>
<!-- NgbModule&#45;&gt;AppModule -->
<g id="edge14" class="edge">
<title>NgbModule&#45;&gt;AppModule</title>
<path fill="none" stroke="black" d="M729,-85.02C729,-103.63 729,-129.8 729,-129.8 729,-129.8 1271.23,-129.8 1271.23,-129.8"/>
<polygon fill="black" stroke="black" points="1271.23,-133.3 1281.23,-129.8 1271.23,-126.3 1271.23,-133.3"/>
</g>
<!-- RouterModule.forRoot(args) -->
<g id="node16" class="node">
<title>RouterModule.forRoot(args)</title>
<polygon fill="#8dd3c7" stroke="black" points="669.84,-84.8 666.84,-88.8 645.84,-88.8 642.84,-84.8 492.16,-84.8 492.16,-48.8 669.84,-48.8 669.84,-84.8"/>
<text text-anchor="middle" x="581" y="-62.6" font-family="Times,serif" font-size="14.00">RouterModule.forRoot(args)</text>
</g>
<!-- RouterModule.forRoot(args)&#45;&gt;AppModule -->
<g id="edge15" class="edge">
<title>RouterModule.forRoot(args)&#45;&gt;AppModule</title>
<path fill="none" stroke="black" d="M581,-85.11C581,-104.95 581,-133.8 581,-133.8 581,-133.8 1271.25,-133.8 1271.25,-133.8"/>
<polygon fill="black" stroke="black" points="1271.25,-137.3 1281.25,-133.8 1271.25,-130.3 1271.25,-137.3"/>
</g>
<!-- UserService -->
<g id="node18" class="node">
<title>UserService</title>
<ellipse fill="#fdb462" stroke="black" cx="410" cy="-66.8" rx="58.44" ry="18"/>
<text text-anchor="middle" x="410" y="-62.6" font-family="Times,serif" font-size="14.00">UserService</text>
</g>
<!-- UserService&#45;&gt;AppModule -->
<g id="edge17" class="edge">
<title>UserService&#45;&gt;AppModule</title>
<path fill="none" stroke="black" d="M410,-85.08C410,-106.12 410,-137.8 410,-137.8 410,-137.8 1271.1,-137.8 1271.1,-137.8"/>
<polygon fill="black" stroke="black" points="1271.1,-141.3 1281.1,-137.8 1271.1,-134.3 1271.1,-141.3"/>
</g>
<!-- NurseService -->
<g id="node19" class="node">
<title>NurseService</title>
<ellipse fill="#fdb462" stroke="black" cx="271" cy="-66.8" rx="63.1" ry="18"/>
<text text-anchor="middle" x="271" y="-62.6" font-family="Times,serif" font-size="14.00">NurseService</text>
</g>
<!-- NurseService&#45;&gt;AppModule -->
<g id="edge18" class="edge">
<title>NurseService&#45;&gt;AppModule</title>
<path fill="none" stroke="black" d="M271,-84.96C271,-107.15 271,-141.8 271,-141.8 271,-141.8 1271.11,-141.8 1271.11,-141.8"/>
<polygon fill="black" stroke="black" points="1271.11,-145.3 1281.11,-141.8 1271.11,-138.3 1271.11,-145.3"/>
</g>
<!-- AuthGuardService -->
<g id="node20" class="node">
<title>AuthGuardService</title>
<ellipse fill="#fdb462" stroke="black" cx="107" cy="-66.8" rx="83.37" ry="18"/>
<text text-anchor="middle" x="107" y="-62.6" font-family="Times,serif" font-size="14.00">AuthGuardService</text>
</g>
<!-- AuthGuardService&#45;&gt;AppModule -->
<g id="edge19" class="edge">
<title>AuthGuardService&#45;&gt;AppModule</title>
<path fill="none" stroke="black" d="M107,-85.12C107,-108.46 107,-145.8 107,-145.8 107,-145.8 1271.14,-145.8 1271.14,-145.8"/>
<polygon fill="black" stroke="black" points="1271.14,-149.3 1281.14,-145.8 1271.14,-142.3 1271.14,-149.3"/>
</g>
</g>
</svg>
